<?xml version="1.0" encoding="UTF-8"?>
<svg xmlns="http://www.w3.org/2000/svg" xmlns:xlink="http://www.w3.org/1999/xlink" width="150pt" height="150pt" viewBox="0 0 150 150" version="1.1">
<g id="surface1">
<path style=" stroke:none;fill-rule:nonzero;fill:rgb(100%,46.27451%,70.588235%);fill-opacity:1;" d="M 73.203125 9.8125 C 72.210938 7.953125 70.84375 6.277344 69.191406 4.863281 C 65.621094 1.800781 60.695312 -0.0664062 55.277344 0 C 44.960938 0.125 36.273438 7.683594 36.113281 16.664062 C 36.113281 16.824219 36.132812 16.980469 36.144531 17.136719 C 35.277344 17.023438 34.195312 16.933594 33.332031 16.933594 C 24.128906 16.933594 16.667969 23.433594 16.667969 31.449219 C 16.667969 34.105469 17.5 36.589844 18.929688 38.730469 C 9.964844 38.96875 2.777344 45.359375 2.777344 53.222656 C 2.777344 56.953125 4.398438 60.351562 7.054688 62.921875 C 2.296875 67 0 72.25 0 77.421875 C 0 86.378906 7 93.882812 16.492188 96.085938 C 12.992188 99.601562 11.113281 104.28125 11.113281 108.871094 C 11.113281 118.804688 19.707031 126.980469 30.773438 128.089844 C 30.644531 128.925781 30.554688 129.777344 30.554688 130.644531 C 30.554688 141.335938 40.507812 150 52.777344 150 C 59.128906 150 64.855469 147.679688 68.902344 143.964844 C 70.683594 142.328125 72.140625 140.421875 73.179688 138.328125 C 73.53125 137.625 74.261719 137.273438 75 137.273438 L 96.125 76.335938 L 75 10.824219 C 74.28125 10.824219 73.558594 10.488281 73.203125 9.8125 Z M 73.203125 9.8125 "/>
<path style=" stroke:none;fill-rule:nonzero;fill:rgb(40%,94.509804%,100%);fill-opacity:1;" d="M 133.507812 96.085938 C 137.007812 99.601562 138.886719 104.28125 138.886719 108.871094 C 138.886719 118.804688 130.292969 126.980469 119.226562 128.089844 C 119.355469 128.925781 119.445312 129.777344 119.445312 130.644531 C 119.445312 141.335938 109.492188 150 97.222656 150 C 88.085938 150 80.234375 145.195312 76.820312 138.328125 C 76.472656 137.625 75.734375 137.273438 75 137.273438 L 75 10.824219 C 75.71875 10.824219 76.4375 10.488281 76.800781 9.8125 C 79.925781 3.945312 86.789062 -0.0976562 94.722656 0.00390625 C 105.039062 0.125 113.726562 7.679688 113.886719 16.664062 C 113.890625 16.824219 113.867188 16.980469 113.855469 17.136719 C 114.722656 17.023438 115.804688 16.933594 116.667969 16.933594 C 125.871094 16.933594 133.332031 23.433594 133.332031 31.449219 C 133.332031 34.105469 132.5 36.589844 131.070312 38.730469 C 140.03125 38.96875 147.222656 45.355469 147.222656 53.222656 C 147.222656 56.953125 145.601562 60.351562 142.945312 62.921875 C 147.703125 67 150 72.25 150 77.417969 C 150 86.378906 143 93.882812 133.507812 96.085938 Z M 133.507812 96.085938 "/>
<path style=" stroke:none;fill-rule:nonzero;fill:rgb(86.666667%,38.431373%,77.647059%);fill-opacity:1;" d="M 73.203125 9.8125 C 72.210938 7.953125 70.84375 6.277344 69.191406 4.863281 C 69.058594 5.089844 68.933594 5.316406 68.808594 5.550781 C 66.457031 9.960938 68.128906 15.445312 72.539062 17.800781 C 73.332031 18.222656 74.160156 18.515625 75 18.683594 L 75 10.824219 C 74.28125 10.824219 73.558594 10.488281 73.203125 9.8125 Z M 73.203125 9.8125 "/>
<path style=" stroke:none;fill-rule:nonzero;fill:rgb(86.666667%,38.431373%,77.647059%);fill-opacity:1;" d="M 65.945312 137.273438 C 65.945312 139.921875 67.085938 142.308594 68.902344 143.964844 C 70.683594 142.328125 72.140625 140.421875 73.179688 138.328125 C 73.53125 137.625 74.265625 137.273438 75 137.273438 L 75 128.21875 C 70 128.21875 65.945312 132.273438 65.945312 137.273438 Z M 65.945312 137.273438 "/>
<path style=" stroke:none;fill-rule:nonzero;fill:rgb(40%,83.137255%,100%);fill-opacity:1;" d="M 133.507812 96.085938 C 137.007812 99.601562 138.886719 104.28125 138.886719 108.871094 C 138.886719 118.804688 130.292969 126.980469 119.226562 128.089844 C 119.355469 128.925781 119.445312 129.777344 119.445312 130.644531 C 119.445312 141.335938 109.492188 150 97.222656 150 C 88.082031 150 80.234375 145.195312 76.820312 138.328125 C 76.46875 137.625 75.738281 137.273438 75 137.273438 L 75 128.21875 C 79.257812 128.21875 83.0625 130.546875 84.925781 134.296875 C 86.902344 138.273438 91.84375 140.945312 97.222656 140.945312 C 104.359375 140.945312 110.390625 136.226562 110.390625 130.644531 C 110.390625 130.34375 110.355469 129.949219 110.277344 129.445312 C 109.90625 126.992188 110.554688 124.492188 112.074219 122.535156 C 113.597656 120.578125 115.855469 119.324219 118.324219 119.078125 C 124.78125 118.429688 129.832031 113.949219 129.832031 108.871094 C 129.832031 106.558594 128.835938 104.222656 127.089844 102.46875 C 124.773438 100.136719 123.898438 96.738281 124.808594 93.582031 C 125.714844 90.425781 128.261719 88.007812 131.464844 87.265625 C 137.046875 85.96875 140.945312 81.917969 140.945312 77.417969 C 140.945312 74.65625 139.5625 71.949219 137.054688 69.796875 C 135.121094 68.136719 133.972656 65.742188 133.898438 63.199219 C 133.820312 60.652344 134.820312 58.191406 136.648438 56.417969 C 137.34375 55.75 138.167969 54.648438 138.167969 53.222656 C 138.167969 50.378906 134.808594 47.886719 130.828125 47.78125 C 127.535156 47.695312 124.546875 45.824219 123.03125 42.890625 C 121.511719 39.964844 121.707031 36.445312 123.539062 33.703125 C 124.03125 32.96875 124.28125 32.210938 124.28125 31.449219 C 124.28125 28.488281 120.792969 25.988281 116.667969 25.988281 C 116.332031 25.988281 115.664062 26.03125 115.042969 26.113281 C 112.332031 26.472656 109.601562 25.585938 107.621094 23.703125 C 105.671875 21.851562 104.644531 19.222656 104.820312 16.542969 C 104.523438 12.308594 99.273438 9.109375 94.613281 9.054688 L 94.453125 9.054688 C 90.265625 9.054688 86.398438 11.058594 84.789062 14.070312 C 82.859375 17.6875 78.824219 19.460938 75 18.683594 L 75 10.824219 C 75.71875 10.824219 76.441406 10.488281 76.796875 9.8125 C 79.925781 3.945312 86.789062 -0.0976562 94.722656 0.00390625 C 105.039062 0.125 113.726562 7.683594 113.886719 16.664062 C 113.886719 16.824219 113.867188 16.980469 113.855469 17.140625 C 114.722656 17.023438 115.804688 16.933594 116.667969 16.933594 C 125.871094 16.933594 133.335938 23.433594 133.335938 31.449219 C 133.335938 34.105469 132.5 36.589844 131.070312 38.730469 C 140.035156 38.96875 147.222656 45.359375 147.222656 53.222656 C 147.222656 56.953125 145.601562 60.351562 142.945312 62.921875 C 147.703125 67 150 72.25 150 77.417969 C 150 86.378906 143 93.882812 133.507812 96.085938 Z M 133.507812 96.085938 "/>
<path style=" stroke:none;fill-rule:nonzero;fill:rgb(40%,83.137255%,100%);fill-opacity:1;" d="M 97.3125 115.421875 L 92.917969 115.421875 C 92.917969 111.425781 91.996094 108.515625 90.179688 106.761719 C 87.207031 103.890625 81.863281 104.082031 77.570312 104.234375 C 76.765625 104.265625 75.792969 104.292969 75 104.300781 L 75 99.90625 C 75.734375 99.898438 76.65625 99.871094 77.414062 99.84375 C 82.265625 99.671875 88.914062 99.433594 93.230469 103.601562 C 95.9375 106.210938 97.3125 110.1875 97.3125 115.421875 Z M 97.3125 115.421875 "/>
<path style=" stroke:none;fill-rule:nonzero;fill:rgb(40%,83.137255%,100%);fill-opacity:1;" d="M 97.3125 34.578125 C 97.3125 39.8125 95.9375 43.789062 93.230469 46.398438 C 89.828125 49.683594 84.976562 50.234375 80.703125 50.234375 C 79.550781 50.234375 78.441406 50.195312 77.414062 50.15625 C 76.65625 50.128906 75.734375 50.101562 75 50.09375 L 75 45.699219 C 75.792969 45.707031 76.765625 45.734375 77.570312 45.765625 C 81.863281 45.917969 87.203125 46.109375 90.179688 43.238281 C 91.996094 41.484375 92.917969 38.570312 92.917969 34.578125 Z M 97.3125 34.578125 "/>
<path style=" stroke:none;fill-rule:nonzero;fill:rgb(40%,83.137255%,100%);fill-opacity:1;" d="M 116.238281 100.878906 L 111.84375 100.878906 C 111.84375 86.753906 99.6875 86.046875 75 86.039062 L 75 81.644531 C 86.453125 81.644531 96.625 81.671875 103.761719 83.875 C 112.15625 86.460938 116.238281 92.023438 116.238281 100.878906 Z M 116.238281 100.878906 "/>
<path style=" stroke:none;fill-rule:nonzero;fill:rgb(40%,83.137255%,100%);fill-opacity:1;" d="M 116.238281 48.6875 C 116.238281 57.539062 112.15625 63.101562 103.761719 65.691406 C 96.625 67.890625 86.453125 67.917969 75 67.917969 L 75 63.523438 C 99.6875 63.515625 111.84375 62.808594 111.84375 48.6875 Z M 116.238281 48.6875 "/>
<path style=" stroke:none;fill-rule:nonzero;fill:rgb(100%,100%,100%);fill-opacity:1;" d="M 99.515625 118.351562 C 99.515625 115.921875 97.546875 113.957031 95.113281 113.957031 C 92.683594 113.957031 90.714844 115.921875 90.714844 118.351562 C 90.714844 120.777344 92.683594 122.742188 95.113281 122.742188 C 97.546875 122.742188 99.515625 120.777344 99.515625 118.351562 Z M 99.515625 118.351562 "/>
<path style=" stroke:none;fill-rule:nonzero;fill:rgb(100%,100%,100%);fill-opacity:1;" d="M 99.515625 31.648438 C 99.515625 29.222656 97.546875 27.257812 95.113281 27.257812 C 92.683594 27.257812 90.714844 29.222656 90.714844 31.648438 C 90.714844 34.078125 92.683594 36.042969 95.113281 36.042969 C 97.546875 36.042969 99.515625 34.078125 99.515625 31.648438 Z M 99.515625 31.648438 "/>
<path style=" stroke:none;fill-rule:nonzero;fill:rgb(100%,100%,100%);fill-opacity:1;" d="M 118.441406 103.808594 C 118.441406 101.382812 116.472656 99.414062 114.042969 99.414062 C 111.613281 99.414062 109.640625 101.382812 109.640625 103.808594 C 109.640625 106.234375 111.613281 108.203125 114.042969 108.203125 C 116.472656 108.203125 118.441406 106.234375 118.441406 103.808594 Z M 118.441406 103.808594 "/>
<path style=" stroke:none;fill-rule:nonzero;fill:rgb(100%,100%,100%);fill-opacity:1;" d="M 118.441406 45.757812 C 118.441406 43.328125 116.472656 41.363281 114.042969 41.363281 C 111.613281 41.363281 109.640625 43.328125 109.640625 45.757812 C 109.640625 48.183594 111.613281 50.148438 114.042969 50.148438 C 116.472656 50.148438 118.441406 48.183594 118.441406 45.757812 Z M 118.441406 45.757812 "/>
<path style=" stroke:none;fill-rule:nonzero;fill:rgb(86.666667%,38.431373%,77.647059%);fill-opacity:1;" d="M 24.289062 76.757812 C 24.21875 77.972656 25.148438 79.007812 26.359375 79.078125 C 26.398438 79.078125 26.441406 79.082031 26.484375 79.082031 C 27.640625 79.082031 28.609375 78.175781 28.675781 77.007812 C 28.679688 76.894531 29.421875 65.945312 40.503906 63.25 C 41.683594 62.960938 42.40625 61.773438 42.121094 60.59375 C 41.835938 59.414062 40.648438 58.691406 39.46875 58.980469 C 32.039062 60.785156 28.300781 65.523438 26.46875 69.183594 C 24.511719 73.097656 24.296875 76.613281 24.289062 76.757812 Z M 24.289062 76.757812 "/>
<path style=" stroke:none;fill-rule:nonzero;fill:rgb(86.666667%,38.431373%,77.647059%);fill-opacity:1;" d="M 58.3125 25.941406 C 57.109375 25.828125 56.03125 26.714844 55.917969 27.921875 C 55.269531 34.816406 48.128906 37.460938 47.8125 37.570312 C 46.671875 37.976562 46.074219 39.226562 46.472656 40.371094 C 46.789062 41.273438 47.640625 41.839844 48.546875 41.839844 C 48.789062 41.839844 49.035156 41.800781 49.273438 41.714844 C 49.6875 41.570312 59.375 38.066406 60.292969 28.335938 C 60.40625 27.125 59.519531 26.054688 58.3125 25.941406 Z M 58.3125 25.941406 "/>
<path style=" stroke:none;fill-rule:nonzero;fill:rgb(86.666667%,38.431373%,77.647059%);fill-opacity:1;" d="M 56.542969 123.855469 C 56.847656 124 57.171875 124.070312 57.488281 124.070312 C 58.308594 124.070312 59.097656 123.605469 59.472656 122.816406 C 59.992188 121.71875 59.527344 120.40625 58.433594 119.886719 C 49.976562 115.863281 50.699219 106.296875 50.734375 105.882812 C 50.84375 104.679688 49.957031 103.613281 48.753906 103.5 C 47.546875 103.390625 46.472656 104.273438 46.359375 105.480469 C 46.308594 106.011719 45.277344 118.492188 56.542969 123.855469 Z M 56.542969 123.855469 "/>
<path style=" stroke:none;fill-rule:nonzero;fill:rgb(86.666667%,38.431373%,77.647059%);fill-opacity:1;" d="M 51.335938 83.070312 C 50.242188 83.59375 49.777344 84.902344 50.296875 86 C 50.671875 86.789062 51.460938 87.253906 52.28125 87.253906 C 52.597656 87.253906 52.921875 87.183594 53.226562 87.039062 C 60.339844 83.65625 59.6875 75.792969 59.65625 75.460938 C 59.542969 74.25 58.46875 73.367188 57.265625 73.476562 C 56.054688 73.589844 55.167969 74.660156 55.28125 75.871094 C 55.285156 75.921875 55.707031 80.992188 51.335938 83.070312 Z M 51.335938 83.070312 "/>
<path style=" stroke:none;fill-rule:nonzero;fill:rgb(40%,83.137255%,100%);fill-opacity:1;" d="M 109.824219 75 C 109.824219 76.214844 108.839844 77.195312 107.628906 77.195312 C 106.414062 77.195312 105.429688 76.214844 105.429688 75 C 105.429688 73.785156 106.414062 72.804688 107.628906 72.804688 C 108.839844 72.804688 109.824219 73.785156 109.824219 75 Z M 109.824219 75 "/>
<path style=" stroke:none;fill-rule:nonzero;fill:rgb(40%,83.137255%,100%);fill-opacity:1;" d="M 124.765625 75 C 124.765625 76.214844 123.78125 77.195312 122.566406 77.195312 C 121.351562 77.195312 120.367188 76.214844 120.367188 75 C 120.367188 73.785156 121.351562 72.804688 122.566406 72.804688 C 123.78125 72.804688 124.765625 73.785156 124.765625 75 Z M 124.765625 75 "/>
<path style=" stroke:none;fill-rule:nonzero;fill:rgb(40%,83.137255%,100%);fill-opacity:1;" d="M 98.773438 132.570312 C 98.773438 133.78125 97.789062 134.765625 96.574219 134.765625 C 95.359375 134.765625 94.375 133.78125 94.375 132.570312 C 94.375 131.355469 95.359375 130.371094 96.574219 130.371094 C 97.789062 130.371094 98.773438 131.355469 98.773438 132.570312 Z M 98.773438 132.570312 "/>
<path style=" stroke:none;fill-rule:nonzero;fill:rgb(40%,83.137255%,100%);fill-opacity:1;" d="M 98.773438 17.429688 C 98.773438 18.644531 97.789062 19.628906 96.574219 19.628906 C 95.359375 19.628906 94.375 18.644531 94.375 17.429688 C 94.375 16.21875 95.359375 15.234375 96.574219 15.234375 C 97.789062 15.234375 98.773438 16.21875 98.773438 17.429688 Z M 98.773438 17.429688 "/>
</g>
</svg>
