<?xml version="1.0" encoding="UTF-8"?>
<svg xmlns="http://www.w3.org/2000/svg" xmlns:xlink="http://www.w3.org/1999/xlink" width="150pt" height="150pt" viewBox="0 0 150 150" version="1.1">
<g id="surface1">
<path style=" stroke:none;fill-rule:nonzero;fill:rgb(17.647059%,21.176471%,42.745098%);fill-opacity:1;" d="M 138.28125 98.4375 L 123.25 98.4375 L 113.875 89.0625 L 89.0625 89.0625 L 89.0625 84.375 L 115.8125 84.375 L 125.1875 93.75 L 138.28125 93.75 Z M 138.28125 98.4375 "/>
<path style=" stroke:none;fill-rule:nonzero;fill:rgb(17.647059%,21.176471%,42.745098%);fill-opacity:1;" d="M 138.28125 119.53125 L 123.25 119.53125 L 104.5 100.78125 L 89.0625 100.78125 L 89.0625 96.09375 L 106.4375 96.09375 L 125.1875 114.84375 L 138.28125 114.84375 Z M 138.28125 119.53125 "/>
<path style=" stroke:none;fill-rule:nonzero;fill:rgb(17.647059%,21.176471%,42.745098%);fill-opacity:1;" d="M 138.28125 140.625 L 125.59375 140.625 L 97.46875 112.5 L 89.0625 112.5 L 89.0625 107.8125 L 99.40625 107.8125 L 127.53125 135.9375 L 138.28125 135.9375 Z M 138.28125 140.625 "/>
<path style=" stroke:none;fill-rule:nonzero;fill:rgb(17.647059%,21.176471%,42.745098%);fill-opacity:1;" d="M 115.8125 65.625 L 89.0625 65.625 L 89.0625 60.9375 L 113.875 60.9375 L 123.25 51.5625 L 138.28125 51.5625 L 138.28125 56.25 L 125.1875 56.25 Z M 115.8125 65.625 "/>
<path style=" stroke:none;fill-rule:nonzero;fill:rgb(17.647059%,21.176471%,42.745098%);fill-opacity:1;" d="M 106.4375 53.90625 L 89.0625 53.90625 L 89.0625 49.21875 L 104.5 49.21875 L 123.25 30.46875 L 138.28125 30.46875 L 138.28125 35.15625 L 125.1875 35.15625 Z M 106.4375 53.90625 "/>
<path style=" stroke:none;fill-rule:nonzero;fill:rgb(17.647059%,21.176471%,42.745098%);fill-opacity:1;" d="M 99.40625 42.1875 L 89.0625 42.1875 L 89.0625 37.5 L 97.46875 37.5 L 125.59375 9.375 L 138.28125 9.375 L 138.28125 14.0625 L 127.53125 14.0625 Z M 99.40625 42.1875 "/>
<path style=" stroke:none;fill-rule:nonzero;fill:rgb(17.647059%,21.176471%,42.745098%);fill-opacity:1;" d="M 89.0625 72.65625 L 138.28125 72.65625 L 138.28125 77.34375 L 89.0625 77.34375 Z M 89.0625 72.65625 "/>
<path style=" stroke:none;fill-rule:nonzero;fill:rgb(17.647059%,21.176471%,42.745098%);fill-opacity:1;" d="M 14.0625 42.1875 L 56.25 42.1875 L 56.25 46.875 L 14.0625 46.875 Z M 14.0625 42.1875 "/>
<path style=" stroke:none;fill-rule:nonzero;fill:rgb(17.647059%,21.176471%,42.745098%);fill-opacity:1;" d="M 12.707031 15.953125 L 15.453125 12.152344 L 57.660156 42.648438 L 54.914062 46.449219 Z M 12.707031 15.953125 "/>
<path style=" stroke:none;fill-rule:nonzero;fill:rgb(17.647059%,21.176471%,42.745098%);fill-opacity:1;" d="M 12.714844 46.4375 L 15.464844 42.636719 L 57.667969 73.132812 L 54.921875 76.933594 Z M 12.714844 46.4375 "/>
<path style=" stroke:none;fill-rule:nonzero;fill:rgb(17.647059%,21.176471%,42.745098%);fill-opacity:1;" d="M 12.734375 103.597656 L 54.9375 73.101562 L 57.6875 76.902344 L 15.480469 107.398438 Z M 12.734375 103.597656 "/>
<path style=" stroke:none;fill-rule:nonzero;fill:rgb(17.647059%,21.176471%,42.745098%);fill-opacity:1;" d="M 12.726562 76.921875 L 15.472656 73.121094 L 57.679688 103.617188 L 54.929688 107.417969 Z M 12.726562 76.921875 "/>
<path style=" stroke:none;fill-rule:nonzero;fill:rgb(17.647059%,21.176471%,42.745098%);fill-opacity:1;" d="M 14.0625 103.125 L 56.25 103.125 L 56.25 107.8125 L 14.0625 107.8125 Z M 14.0625 103.125 "/>
<path style=" stroke:none;fill-rule:nonzero;fill:rgb(17.647059%,21.176471%,42.745098%);fill-opacity:1;" d="M 14.0625 72.65625 L 56.25 72.65625 L 56.25 77.34375 L 14.0625 77.34375 Z M 14.0625 72.65625 "/>
<path style=" stroke:none;fill-rule:nonzero;fill:rgb(17.647059%,21.176471%,42.745098%);fill-opacity:1;" d="M 15.027344 134.050781 L 54.855469 103.554688 L 57.703125 107.273438 L 17.878906 137.769531 Z M 15.027344 134.050781 "/>
<path style=" stroke:none;fill-rule:nonzero;fill:rgb(17.647059%,21.176471%,42.745098%);fill-opacity:1;" d="M 12.71875 73.117188 L 54.925781 42.621094 L 57.671875 46.421875 L 15.46875 76.917969 Z M 12.71875 73.117188 "/>
<path style=" stroke:none;fill-rule:nonzero;fill:rgb(99.215686%,63.529412%,18.039216%);fill-opacity:1;" d="M 145.3125 75 C 145.3125 77.589844 143.214844 79.6875 140.625 79.6875 C 138.035156 79.6875 135.9375 77.589844 135.9375 75 C 135.9375 72.410156 138.035156 70.3125 140.625 70.3125 C 143.214844 70.3125 145.3125 72.410156 145.3125 75 Z M 145.3125 75 "/>
<path style=" stroke:none;fill-rule:nonzero;fill:rgb(99.215686%,63.529412%,18.039216%);fill-opacity:1;" d="M 145.3125 96.09375 C 145.3125 98.683594 143.214844 100.78125 140.625 100.78125 C 138.035156 100.78125 135.9375 98.683594 135.9375 96.09375 C 135.9375 93.503906 138.035156 91.40625 140.625 91.40625 C 143.214844 91.40625 145.3125 93.503906 145.3125 96.09375 Z M 145.3125 96.09375 "/>
<path style=" stroke:none;fill-rule:nonzero;fill:rgb(99.215686%,63.529412%,18.039216%);fill-opacity:1;" d="M 145.3125 117.1875 C 145.3125 119.777344 143.214844 121.875 140.625 121.875 C 138.035156 121.875 135.9375 119.777344 135.9375 117.1875 C 135.9375 114.597656 138.035156 112.5 140.625 112.5 C 143.214844 112.5 145.3125 114.597656 145.3125 117.1875 Z M 145.3125 117.1875 "/>
<path style=" stroke:none;fill-rule:nonzero;fill:rgb(99.215686%,63.529412%,18.039216%);fill-opacity:1;" d="M 145.3125 138.28125 C 145.3125 140.871094 143.214844 142.96875 140.625 142.96875 C 138.035156 142.96875 135.9375 140.871094 135.9375 138.28125 C 135.9375 135.691406 138.035156 133.59375 140.625 133.59375 C 143.214844 133.59375 145.3125 135.691406 145.3125 138.28125 Z M 145.3125 138.28125 "/>
<path style=" stroke:none;fill-rule:nonzero;fill:rgb(99.215686%,63.529412%,18.039216%);fill-opacity:1;" d="M 145.3125 53.90625 C 145.3125 56.496094 143.214844 58.59375 140.625 58.59375 C 138.035156 58.59375 135.9375 56.496094 135.9375 53.90625 C 135.9375 51.316406 138.035156 49.21875 140.625 49.21875 C 143.214844 49.21875 145.3125 51.316406 145.3125 53.90625 Z M 145.3125 53.90625 "/>
<path style=" stroke:none;fill-rule:nonzero;fill:rgb(99.215686%,63.529412%,18.039216%);fill-opacity:1;" d="M 145.3125 32.8125 C 145.3125 35.402344 143.214844 37.5 140.625 37.5 C 138.035156 37.5 135.9375 35.402344 135.9375 32.8125 C 135.9375 30.222656 138.035156 28.125 140.625 28.125 C 143.214844 28.125 145.3125 30.222656 145.3125 32.8125 Z M 145.3125 32.8125 "/>
<path style=" stroke:none;fill-rule:nonzero;fill:rgb(99.215686%,63.529412%,18.039216%);fill-opacity:1;" d="M 145.3125 11.71875 C 145.3125 14.308594 143.214844 16.40625 140.625 16.40625 C 138.035156 16.40625 135.9375 14.308594 135.9375 11.71875 C 135.9375 9.128906 138.035156 7.03125 140.625 7.03125 C 143.214844 7.03125 145.3125 9.128906 145.3125 11.71875 Z M 145.3125 11.71875 "/>
<path style=" stroke:none;fill-rule:nonzero;fill:rgb(29.411765%,74.509804%,89.803922%);fill-opacity:1;" d="M 23.4375 14.0625 C 23.4375 19.238281 19.238281 23.4375 14.0625 23.4375 C 8.886719 23.4375 4.6875 19.238281 4.6875 14.0625 C 4.6875 8.886719 8.886719 4.6875 14.0625 4.6875 C 19.238281 4.6875 23.4375 8.886719 23.4375 14.0625 Z M 23.4375 14.0625 "/>
<path style=" stroke:none;fill-rule:nonzero;fill:rgb(29.411765%,74.509804%,89.803922%);fill-opacity:1;" d="M 23.4375 44.53125 C 23.4375 49.707031 19.238281 53.90625 14.0625 53.90625 C 8.886719 53.90625 4.6875 49.707031 4.6875 44.53125 C 4.6875 39.355469 8.886719 35.15625 14.0625 35.15625 C 19.238281 35.15625 23.4375 39.355469 23.4375 44.53125 Z M 23.4375 44.53125 "/>
<path style=" stroke:none;fill-rule:nonzero;fill:rgb(29.411765%,74.509804%,89.803922%);fill-opacity:1;" d="M 23.4375 75 C 23.4375 80.175781 19.238281 84.375 14.0625 84.375 C 8.886719 84.375 4.6875 80.175781 4.6875 75 C 4.6875 69.824219 8.886719 65.625 14.0625 65.625 C 19.238281 65.625 23.4375 69.824219 23.4375 75 Z M 23.4375 75 "/>
<path style=" stroke:none;fill-rule:nonzero;fill:rgb(29.411765%,74.509804%,89.803922%);fill-opacity:1;" d="M 23.4375 105.46875 C 23.4375 110.644531 19.238281 114.84375 14.0625 114.84375 C 8.886719 114.84375 4.6875 110.644531 4.6875 105.46875 C 4.6875 100.292969 8.886719 96.09375 14.0625 96.09375 C 19.238281 96.09375 23.4375 100.292969 23.4375 105.46875 Z M 23.4375 105.46875 "/>
<path style=" stroke:none;fill-rule:nonzero;fill:rgb(29.411765%,74.509804%,89.803922%);fill-opacity:1;" d="M 23.4375 135.9375 C 23.4375 141.113281 19.238281 145.3125 14.0625 145.3125 C 8.886719 145.3125 4.6875 141.113281 4.6875 135.9375 C 4.6875 130.761719 8.886719 126.5625 14.0625 126.5625 C 19.238281 126.5625 23.4375 130.761719 23.4375 135.9375 Z M 23.4375 135.9375 "/>
<path style=" stroke:none;fill-rule:nonzero;fill:rgb(17.647059%,21.176471%,42.745098%);fill-opacity:1;" d="M 63.28125 42.1875 L 84.375 42.1875 L 84.375 46.875 L 63.28125 46.875 Z M 63.28125 42.1875 "/>
<path style=" stroke:none;fill-rule:nonzero;fill:rgb(17.647059%,21.176471%,42.745098%);fill-opacity:1;" d="M 63.28125 72.65625 L 84.375 72.65625 L 84.375 77.34375 L 63.28125 77.34375 Z M 63.28125 72.65625 "/>
<path style=" stroke:none;fill-rule:nonzero;fill:rgb(17.647059%,21.176471%,42.745098%);fill-opacity:1;" d="M 63.28125 103.125 L 84.375 103.125 L 84.375 107.8125 L 63.28125 107.8125 Z M 63.28125 103.125 "/>
<path style=" stroke:none;fill-rule:nonzero;fill:rgb(97.254902%,18.431373%,27.058824%);fill-opacity:1;" d="M 86.71875 117.1875 C 84.128906 117.1875 82.03125 115.089844 82.03125 112.5 L 82.03125 35.15625 C 82.03125 32.566406 84.128906 30.46875 86.71875 30.46875 C 89.308594 30.46875 91.40625 32.566406 91.40625 35.15625 L 91.40625 112.5 C 91.40625 115.089844 89.308594 117.1875 86.71875 117.1875 Z M 86.71875 117.1875 "/>
<path style=" stroke:none;fill-rule:nonzero;fill:rgb(99.215686%,63.529412%,18.039216%);fill-opacity:1;" d="M 65.625 44.53125 C 65.625 49.707031 61.425781 53.90625 56.25 53.90625 C 51.074219 53.90625 46.875 49.707031 46.875 44.53125 C 46.875 39.355469 51.074219 35.15625 56.25 35.15625 C 61.425781 35.15625 65.625 39.355469 65.625 44.53125 Z M 65.625 44.53125 "/>
<path style=" stroke:none;fill-rule:nonzero;fill:rgb(99.215686%,63.529412%,18.039216%);fill-opacity:1;" d="M 65.625 75 C 65.625 80.175781 61.425781 84.375 56.25 84.375 C 51.074219 84.375 46.875 80.175781 46.875 75 C 46.875 69.824219 51.074219 65.625 56.25 65.625 C 61.425781 65.625 65.625 69.824219 65.625 75 Z M 65.625 75 "/>
<path style=" stroke:none;fill-rule:nonzero;fill:rgb(99.215686%,63.529412%,18.039216%);fill-opacity:1;" d="M 65.625 105.46875 C 65.625 110.644531 61.425781 114.84375 56.25 114.84375 C 51.074219 114.84375 46.875 110.644531 46.875 105.46875 C 46.875 100.292969 51.074219 96.09375 56.25 96.09375 C 61.425781 96.09375 65.625 100.292969 65.625 105.46875 Z M 65.625 105.46875 "/>
<path style=" stroke:none;fill-rule:nonzero;fill:rgb(17.647059%,21.176471%,42.745098%);fill-opacity:1;" d="M 70.3125 53.90625 L 75 53.90625 L 75 58.59375 L 70.3125 58.59375 Z M 70.3125 53.90625 "/>
<path style=" stroke:none;fill-rule:nonzero;fill:rgb(17.647059%,21.176471%,42.745098%);fill-opacity:1;" d="M 70.3125 63.28125 L 75 63.28125 L 75 67.96875 L 70.3125 67.96875 Z M 70.3125 63.28125 "/>
<path style=" stroke:none;fill-rule:nonzero;fill:rgb(17.647059%,21.176471%,42.745098%);fill-opacity:1;" d="M 70.3125 82.03125 L 75 82.03125 L 75 86.71875 L 70.3125 86.71875 Z M 70.3125 82.03125 "/>
<path style=" stroke:none;fill-rule:nonzero;fill:rgb(17.647059%,21.176471%,42.745098%);fill-opacity:1;" d="M 70.3125 91.40625 L 75 91.40625 L 75 96.09375 L 70.3125 96.09375 Z M 70.3125 91.40625 "/>
</g>
</svg>
