<?xml version="1.0" encoding="UTF-8"?>
<svg xmlns="http://www.w3.org/2000/svg" xmlns:xlink="http://www.w3.org/1999/xlink" width="150pt" height="150pt" viewBox="0 0 150 150" version="1.1">
<g id="surface1">
<path style=" stroke:none;fill-rule:nonzero;fill:rgb(34.901961%,67.45098%,59.607843%);fill-opacity:1;" d="M 105.46875 18.75 L 145.3125 18.75 L 145.3125 145.3125 L 4.6875 145.3125 L 4.6875 18.75 L 39.84375 18.75 "/>
<path style=" stroke:none;fill-rule:nonzero;fill:rgb(14.117647%,19.607843%,25.882353%);fill-opacity:1;" d="M 72.65625 14.0625 L 105.46875 14.0625 L 105.46875 44.53125 L 72.65625 44.53125 Z M 72.65625 14.0625 "/>
<path style=" stroke:none;fill-rule:nonzero;fill:rgb(65.882353%,69.019608%,73.72549%);fill-opacity:1;" d="M 72.65625 35.15625 L 105.46875 35.15625 L 105.46875 44.53125 L 72.65625 44.53125 Z M 72.65625 35.15625 "/>
<path style=" stroke:none;fill-rule:nonzero;fill:rgb(75.686275%,78.431373%,81.960784%);fill-opacity:1;" d="M 84.375 14.0625 L 93.75 14.0625 L 93.75 35.15625 L 84.375 35.15625 Z M 84.375 14.0625 "/>
<path style=" stroke:none;fill-rule:nonzero;fill:rgb(14.117647%,19.607843%,25.882353%);fill-opacity:1;" d="M 128.90625 25.78125 L 138.28125 25.78125 L 138.28125 44.53125 L 128.90625 44.53125 Z M 128.90625 25.78125 "/>
<path style=" stroke:none;fill-rule:nonzero;fill:rgb(94.901961%,76.470588%,31.764706%);fill-opacity:1;" d="M 112.5 25.78125 L 121.875 25.78125 L 121.875 44.53125 L 112.5 44.53125 Z M 112.5 25.78125 "/>
<path style=" stroke:none;fill-rule:nonzero;fill:rgb(90.588235%,89.411765%,86.666667%);fill-opacity:1;" d="M 82.03125 14.0625 L 82.03125 4.6875 L 96.09375 4.6875 L 96.09375 14.0625 "/>
<path style=" stroke:none;fill-rule:nonzero;fill:rgb(83.529412%,80.784314%,76.078431%);fill-opacity:1;" d="M 72.652344 7.03125 L 77.339844 7.03125 L 77.339844 14.0625 L 72.652344 14.0625 Z M 72.652344 7.03125 "/>
<path style=" stroke:none;fill-rule:nonzero;fill:rgb(83.529412%,80.784314%,76.078431%);fill-opacity:1;" d="M 100.777344 7.03125 L 105.464844 7.03125 L 105.464844 14.0625 L 100.777344 14.0625 Z M 100.777344 7.03125 "/>
<path style=" stroke:none;fill-rule:nonzero;fill:rgb(30.196078%,36.470588%,47.843137%);fill-opacity:1;" d="M 72.652344 25.78125 L 79.683594 25.78125 L 79.683594 30.46875 L 72.652344 30.46875 Z M 72.652344 25.78125 "/>
<path style=" stroke:none;fill-rule:nonzero;fill:rgb(30.196078%,36.470588%,47.843137%);fill-opacity:1;" d="M 98.433594 25.78125 L 105.464844 25.78125 L 105.464844 30.46875 L 98.433594 30.46875 Z M 98.433594 25.78125 "/>
<path style=" stroke:none;fill-rule:nonzero;fill:rgb(79.607843%,76.470588%,71.372549%);fill-opacity:1;" d="M 39.84375 14.0625 L 63.28125 14.0625 L 63.28125 37.5 L 39.84375 37.5 Z M 39.84375 14.0625 "/>
<path style=" stroke:none;fill-rule:nonzero;fill:rgb(90.588235%,89.411765%,86.666667%);fill-opacity:1;" d="M 49.214844 21.09375 L 53.902344 21.09375 L 53.902344 37.5 L 49.214844 37.5 Z M 49.214844 21.09375 "/>
<path style=" stroke:none;fill-rule:nonzero;fill:rgb(90.588235%,89.411765%,86.666667%);fill-opacity:1;" d="M 42.1875 14.0625 L 42.1875 4.6875 L 60.9375 4.6875 L 60.9375 14.0625 "/>
<path style=" stroke:none;fill-rule:nonzero;fill:rgb(83.529412%,80.784314%,76.078431%);fill-opacity:1;" d="M 49.214844 4.6875 L 53.902344 4.6875 L 53.902344 14.0625 L 49.214844 14.0625 Z M 49.214844 4.6875 "/>
<path style=" stroke:none;fill-rule:nonzero;fill:rgb(14.117647%,19.607843%,25.882353%);fill-opacity:1;" d="M 12.886719 30.464844 C 10.949219 30.464844 9.371094 28.890625 9.371094 26.949219 C 9.371094 25.011719 10.949219 23.433594 12.886719 23.433594 C 14.824219 23.433594 16.402344 25.011719 16.402344 26.949219 C 16.402344 28.890625 14.824219 30.464844 12.886719 30.464844 Z M 12.886719 25.78125 C 12.242188 25.78125 11.714844 26.304688 11.714844 26.953125 C 11.714844 27.597656 12.242188 28.125 12.886719 28.125 C 13.53125 28.125 14.058594 27.601562 14.058594 26.953125 C 14.058594 26.304688 13.53125 25.78125 12.886719 25.78125 Z M 12.886719 25.78125 "/>
<path style=" stroke:none;fill-rule:nonzero;fill:rgb(14.117647%,19.607843%,25.882353%);fill-opacity:1;" d="M 41.015625 51.558594 C 39.078125 51.558594 37.5 49.984375 37.5 48.042969 C 37.5 46.105469 39.078125 44.527344 41.015625 44.527344 C 42.953125 44.527344 44.527344 46.105469 44.527344 48.042969 C 44.527344 49.984375 42.953125 51.558594 41.015625 51.558594 Z M 41.015625 46.875 C 40.367188 46.875 39.84375 47.398438 39.84375 48.046875 C 39.84375 48.691406 40.367188 49.21875 41.015625 49.21875 C 41.660156 49.21875 42.183594 48.695312 42.183594 48.046875 C 42.183594 47.398438 41.660156 46.875 41.015625 46.875 Z M 41.015625 46.875 "/>
<path style=" stroke:none;fill-rule:nonzero;fill:rgb(14.117647%,19.607843%,25.882353%);fill-opacity:1;" d="M 50.390625 51.558594 C 48.453125 51.558594 46.875 49.984375 46.875 48.042969 C 46.875 46.105469 48.453125 44.527344 50.390625 44.527344 C 52.328125 44.527344 53.902344 46.105469 53.902344 48.042969 C 53.902344 49.984375 52.328125 51.558594 50.390625 51.558594 Z M 50.390625 46.875 C 49.742188 46.875 49.21875 47.398438 49.21875 48.046875 C 49.21875 48.691406 49.742188 49.21875 50.390625 49.21875 C 51.035156 49.21875 51.558594 48.695312 51.558594 48.046875 C 51.558594 47.398438 51.035156 46.875 50.390625 46.875 Z M 50.390625 46.875 "/>
<path style=" stroke:none;fill-rule:nonzero;fill:rgb(14.117647%,19.607843%,25.882353%);fill-opacity:1;" d="M 116.015625 60.933594 C 114.078125 60.933594 112.5 59.359375 112.5 57.417969 C 112.5 55.480469 114.078125 53.902344 116.015625 53.902344 C 117.953125 53.902344 119.527344 55.480469 119.527344 57.417969 C 119.527344 59.359375 117.953125 60.933594 116.015625 60.933594 Z M 116.015625 56.25 C 115.367188 56.25 114.84375 56.773438 114.84375 57.421875 C 114.84375 58.066406 115.367188 58.59375 116.015625 58.59375 C 116.660156 58.59375 117.183594 58.070312 117.183594 57.421875 C 117.183594 56.773438 116.660156 56.25 116.015625 56.25 Z M 116.015625 56.25 "/>
<path style=" stroke:none;fill-rule:nonzero;fill:rgb(14.117647%,19.607843%,25.882353%);fill-opacity:1;" d="M 106.640625 60.933594 C 104.703125 60.933594 103.125 59.359375 103.125 57.417969 C 103.125 55.480469 104.703125 53.902344 106.640625 53.902344 C 108.578125 53.902344 110.152344 55.480469 110.152344 57.417969 C 110.152344 59.359375 108.578125 60.933594 106.640625 60.933594 Z M 106.640625 56.25 C 105.992188 56.25 105.46875 56.773438 105.46875 57.421875 C 105.46875 58.066406 105.992188 58.59375 106.640625 58.59375 C 107.285156 58.59375 107.808594 58.070312 107.808594 57.421875 C 107.808594 56.773438 107.285156 56.25 106.640625 56.25 Z M 106.640625 56.25 "/>
<path style=" stroke:none;fill-rule:nonzero;fill:rgb(14.117647%,19.607843%,25.882353%);fill-opacity:1;" d="M 73.828125 56.246094 C 71.890625 56.246094 70.3125 54.671875 70.3125 52.730469 C 70.3125 50.792969 71.890625 49.214844 73.828125 49.214844 C 75.765625 49.214844 77.339844 50.792969 77.339844 52.730469 C 77.339844 54.671875 75.765625 56.246094 73.828125 56.246094 Z M 73.828125 51.5625 C 73.179688 51.5625 72.65625 52.085938 72.65625 52.734375 C 72.65625 53.378906 73.179688 53.90625 73.828125 53.90625 C 74.472656 53.90625 74.996094 53.382812 74.996094 52.734375 C 74.996094 52.085938 74.472656 51.5625 73.828125 51.5625 Z M 73.828125 51.5625 "/>
<path style=" stroke:none;fill-rule:nonzero;fill:rgb(14.117647%,19.607843%,25.882353%);fill-opacity:1;" d="M 73.828125 65.621094 C 71.890625 65.621094 70.3125 64.046875 70.3125 62.105469 C 70.3125 60.167969 71.890625 58.589844 73.828125 58.589844 C 75.765625 58.589844 77.339844 60.167969 77.339844 62.105469 C 77.339844 64.046875 75.765625 65.621094 73.828125 65.621094 Z M 73.828125 60.9375 C 73.179688 60.9375 72.65625 61.460938 72.65625 62.109375 C 72.65625 62.753906 73.179688 63.28125 73.828125 63.28125 C 74.472656 63.28125 74.996094 62.757812 74.996094 62.109375 C 74.996094 61.460938 74.472656 60.9375 73.828125 60.9375 Z M 73.828125 60.9375 "/>
<path style=" stroke:none;fill-rule:nonzero;fill:rgb(14.117647%,19.607843%,25.882353%);fill-opacity:1;" d="M 41.015625 60.933594 C 39.078125 60.933594 37.5 59.359375 37.5 57.417969 C 37.5 55.480469 39.078125 53.902344 41.015625 53.902344 C 42.953125 53.902344 44.527344 55.480469 44.527344 57.417969 C 44.527344 59.359375 42.953125 60.933594 41.015625 60.933594 Z M 41.015625 56.25 C 40.367188 56.25 39.84375 56.773438 39.84375 57.421875 C 39.84375 58.066406 40.367188 58.59375 41.015625 58.59375 C 41.660156 58.59375 42.183594 58.070312 42.183594 57.421875 C 42.183594 56.773438 41.660156 56.25 41.015625 56.25 Z M 41.015625 56.25 "/>
<path style=" stroke:none;fill-rule:nonzero;fill:rgb(14.117647%,19.607843%,25.882353%);fill-opacity:1;" d="M 50.390625 60.933594 C 48.453125 60.933594 46.875 59.359375 46.875 57.417969 C 46.875 55.480469 48.453125 53.902344 50.390625 53.902344 C 52.328125 53.902344 53.902344 55.480469 53.902344 57.417969 C 53.902344 59.359375 52.328125 60.933594 50.390625 60.933594 Z M 50.390625 56.25 C 49.742188 56.25 49.21875 56.773438 49.21875 57.421875 C 49.21875 58.066406 49.742188 58.59375 50.390625 58.59375 C 51.035156 58.59375 51.558594 58.070312 51.558594 57.421875 C 51.558594 56.773438 51.035156 56.25 50.390625 56.25 Z M 50.390625 56.25 "/>
<path style=" stroke:none;fill-rule:nonzero;fill:rgb(14.117647%,19.607843%,25.882353%);fill-opacity:1;" d="M 12.886719 140.621094 C 10.949219 140.621094 9.371094 139.042969 9.371094 137.105469 C 9.371094 135.167969 10.949219 133.589844 12.886719 133.589844 C 14.824219 133.589844 16.402344 135.167969 16.402344 137.105469 C 16.402344 139.042969 14.824219 140.621094 12.886719 140.621094 Z M 12.886719 135.933594 C 12.242188 135.933594 11.714844 136.460938 11.714844 137.105469 C 11.714844 137.75 12.242188 138.277344 12.886719 138.277344 C 13.53125 138.277344 14.058594 137.75 14.058594 137.105469 C 14.058594 136.460938 13.53125 135.933594 12.886719 135.933594 Z M 12.886719 135.933594 "/>
<path style=" stroke:none;fill-rule:nonzero;fill:rgb(14.117647%,19.607843%,25.882353%);fill-opacity:1;" d="M 137.105469 140.621094 C 135.167969 140.621094 133.589844 139.042969 133.589844 137.105469 C 133.589844 135.167969 135.167969 133.589844 137.105469 133.589844 C 139.042969 133.589844 140.621094 135.167969 140.621094 137.105469 C 140.621094 139.042969 139.042969 140.621094 137.105469 140.621094 Z M 137.105469 135.933594 C 136.460938 135.933594 135.933594 136.460938 135.933594 137.105469 C 135.933594 137.75 136.460938 138.277344 137.105469 138.277344 C 137.75 138.277344 138.277344 137.75 138.277344 137.105469 C 138.277344 136.460938 137.75 135.933594 137.105469 135.933594 Z M 137.105469 135.933594 "/>
<path style=" stroke:none;fill-rule:nonzero;fill:rgb(14.117647%,19.607843%,25.882353%);fill-opacity:1;" d="M 132.421875 124.214844 C 130.484375 124.214844 128.90625 122.636719 128.90625 120.699219 C 128.90625 118.761719 130.484375 117.183594 132.421875 117.183594 C 134.359375 117.183594 135.933594 118.761719 135.933594 120.699219 C 135.933594 122.636719 134.359375 124.214844 132.421875 124.214844 Z M 132.421875 119.527344 C 131.773438 119.527344 131.25 120.054688 131.25 120.699219 C 131.25 121.34375 131.773438 121.871094 132.421875 121.871094 C 133.066406 121.871094 133.589844 121.34375 133.589844 120.699219 C 133.589844 120.054688 133.066406 119.527344 132.421875 119.527344 Z M 132.421875 119.527344 "/>
<path style=" stroke:none;fill-rule:nonzero;fill:rgb(90.588235%,89.411765%,86.666667%);fill-opacity:1;" d="M 39.84375 65.625 L 46.875 65.625 L 46.875 121.875 L 39.84375 121.875 Z M 39.84375 65.625 "/>
<path style=" stroke:none;fill-rule:nonzero;fill:rgb(30.196078%,36.470588%,47.843137%);fill-opacity:1;" d="M 25.78125 46.875 L 32.8125 46.875 L 32.8125 103.125 L 25.78125 103.125 Z M 25.78125 46.875 "/>
<path style=" stroke:none;fill-rule:nonzero;fill:rgb(30.196078%,36.470588%,47.843137%);fill-opacity:1;" d="M 11.71875 46.875 L 18.75 46.875 L 18.75 103.125 L 11.71875 103.125 Z M 11.71875 46.875 "/>
<path style=" stroke:none;fill-rule:nonzero;fill:rgb(30.196078%,36.470588%,47.843137%);fill-opacity:1;" d="M 82.03125 124.21875 L 82.03125 117.1875 L 124.21875 117.1875 L 124.21875 124.21875 Z M 82.03125 124.21875 "/>
<path style=" stroke:none;fill-rule:nonzero;fill:rgb(90.588235%,89.411765%,86.666667%);fill-opacity:1;" d="M 82.03125 138.28125 L 82.03125 131.25 L 124.21875 131.25 L 124.21875 138.28125 Z M 82.03125 138.28125 "/>
<path style=" stroke:none;fill-rule:nonzero;fill:rgb(90.588235%,89.411765%,86.666667%);fill-opacity:1;" d="M 58.59375 56.25 L 65.625 56.25 L 65.625 121.875 L 58.59375 121.875 Z M 58.59375 56.25 "/>
<path style=" stroke:none;fill-rule:nonzero;fill:rgb(90.588235%,89.411765%,86.666667%);fill-opacity:1;" d="M 114.84375 65.625 L 124.21875 65.625 L 124.21875 75 L 114.84375 75 Z M 114.84375 65.625 "/>
<path style=" stroke:none;fill-rule:nonzero;fill:rgb(79.607843%,76.470588%,71.372549%);fill-opacity:1;" d="M 98.4375 65.625 L 107.8125 65.625 L 107.8125 75 L 98.4375 75 Z M 98.4375 65.625 "/>
<path style=" stroke:none;fill-rule:nonzero;fill:rgb(90.588235%,89.411765%,86.666667%);fill-opacity:1;" d="M 82.03125 65.625 L 91.40625 65.625 L 91.40625 75 L 82.03125 75 Z M 82.03125 65.625 "/>
<path style=" stroke:none;fill-rule:nonzero;fill:rgb(14.117647%,19.607843%,25.882353%);fill-opacity:1;" d="M 91.40625 91.40625 L 114.84375 91.40625 L 114.84375 110.15625 L 91.40625 110.15625 Z M 91.40625 91.40625 "/>
<path style=" stroke:none;fill-rule:nonzero;fill:rgb(79.607843%,76.470588%,71.372549%);fill-opacity:1;" d="M 91.40625 93.75 L 82.03125 96.09375 L 82.03125 105.46875 L 91.40625 107.8125 "/>
<path style=" stroke:none;fill-rule:nonzero;fill:rgb(90.588235%,89.411765%,86.666667%);fill-opacity:1;" d="M 91.402344 98.433594 L 107.808594 98.433594 L 107.808594 103.121094 L 91.402344 103.121094 Z M 91.402344 98.433594 "/>
<path style=" stroke:none;fill-rule:nonzero;fill:rgb(79.607843%,76.470588%,71.372549%);fill-opacity:1;" d="M 11.71875 110.15625 L 30.46875 110.15625 L 30.46875 128.90625 L 11.71875 128.90625 Z M 11.71875 110.15625 "/>
<path style=" stroke:none;fill-rule:nonzero;fill:rgb(90.588235%,89.411765%,86.666667%);fill-opacity:1;" d="M 23.433594 124.214844 L 18.746094 124.214844 C 17.453125 124.214844 16.402344 123.167969 16.402344 121.871094 L 16.402344 117.183594 C 16.402344 115.890625 17.453125 114.839844 18.746094 114.839844 L 23.433594 114.839844 C 24.730469 114.839844 25.777344 115.890625 25.777344 117.183594 L 25.777344 121.871094 C 25.777344 123.167969 24.730469 124.214844 23.433594 124.214844 Z M 23.433594 124.214844 "/>
<path style=" stroke:none;fill-rule:nonzero;fill:rgb(30.196078%,36.470588%,47.843137%);fill-opacity:1;" d="M 37.5 126.558594 L 56.246094 126.558594 L 56.246094 131.246094 L 37.5 131.246094 Z M 37.5 126.558594 "/>
<path style=" stroke:none;fill-rule:nonzero;fill:rgb(30.196078%,36.470588%,47.843137%);fill-opacity:1;" d="M 37.5 133.589844 L 56.246094 133.589844 L 56.246094 138.277344 L 37.5 138.277344 Z M 37.5 133.589844 "/>
<path style=" stroke:none;fill-rule:nonzero;fill:rgb(89.019608%,59.607843%,32.941176%);fill-opacity:1;" d="M 58.59375 133.589844 L 63.277344 133.589844 L 63.277344 138.277344 L 58.59375 138.277344 Z M 58.59375 133.589844 "/>
<path style=" stroke:none;fill-rule:nonzero;fill:rgb(94.901961%,76.470588%,31.764706%);fill-opacity:1;" d="M 65.625 133.589844 L 70.308594 133.589844 L 70.308594 138.277344 L 65.625 138.277344 Z M 65.625 133.589844 "/>
<path style=" stroke:none;fill-rule:nonzero;fill:rgb(89.411765%,48.627451%,43.137255%);fill-opacity:1;" d="M 72.65625 133.589844 L 77.339844 133.589844 L 77.339844 138.277344 L 72.65625 138.277344 Z M 72.65625 133.589844 "/>
<path style=" stroke:none;fill-rule:nonzero;fill:rgb(89.019608%,59.607843%,32.941176%);fill-opacity:1;" d="M 135.933594 91.402344 L 140.621094 91.402344 L 140.621094 96.089844 L 135.933594 96.089844 Z M 135.933594 91.402344 "/>
<path style=" stroke:none;fill-rule:nonzero;fill:rgb(94.901961%,76.470588%,31.764706%);fill-opacity:1;" d="M 135.933594 98.433594 L 140.621094 98.433594 L 140.621094 103.121094 L 135.933594 103.121094 Z M 135.933594 98.433594 "/>
<path style=" stroke:none;fill-rule:nonzero;fill:rgb(89.411765%,48.627451%,43.137255%);fill-opacity:1;" d="M 135.933594 105.464844 L 140.621094 105.464844 L 140.621094 110.152344 L 135.933594 110.152344 Z M 135.933594 105.464844 "/>
<path style=" stroke:none;fill-rule:nonzero;fill:rgb(30.196078%,36.470588%,47.843137%);fill-opacity:1;" d="M 128.902344 58.59375 L 140.621094 58.59375 L 140.621094 63.28125 L 128.902344 63.28125 Z M 128.902344 58.59375 "/>
<path style=" stroke:none;fill-rule:nonzero;fill:rgb(30.196078%,36.470588%,47.843137%);fill-opacity:1;" d="M 128.902344 65.625 L 140.621094 65.625 L 140.621094 70.3125 L 128.902344 70.3125 Z M 128.902344 65.625 "/>
<path style=" stroke:none;fill-rule:nonzero;fill:rgb(30.196078%,36.470588%,47.843137%);fill-opacity:1;" d="M 128.902344 72.65625 L 140.621094 72.65625 L 140.621094 77.34375 L 128.902344 77.34375 Z M 128.902344 72.65625 "/>
<path style=" stroke:none;fill-rule:nonzero;fill:rgb(90.588235%,89.411765%,86.666667%);fill-opacity:1;" d="M 30.464844 25.78125 L 35.152344 25.78125 L 35.152344 39.84375 L 30.464844 39.84375 Z M 30.464844 25.78125 "/>
<path style=" stroke:none;fill-rule:nonzero;fill:rgb(90.588235%,89.411765%,86.666667%);fill-opacity:1;" d="M 23.4375 25.78125 L 28.121094 25.78125 L 28.121094 39.84375 L 23.4375 39.84375 Z M 23.4375 25.78125 "/>
<path style=" stroke:none;fill-rule:nonzero;fill:rgb(90.588235%,89.411765%,86.666667%);fill-opacity:1;" d="M 16.402344 35.15625 L 21.089844 35.15625 L 21.089844 39.84375 L 16.402344 39.84375 Z M 16.402344 35.15625 "/>
<path style=" stroke:none;fill-rule:nonzero;fill:rgb(94.901961%,76.470588%,31.764706%);fill-opacity:1;" d="M 82.03125 84.375 C 82.03125 86.964844 79.933594 89.0625 77.34375 89.0625 C 74.753906 89.0625 72.65625 86.964844 72.65625 84.375 C 72.65625 81.785156 74.753906 79.6875 77.34375 79.6875 C 79.933594 79.6875 82.03125 81.785156 82.03125 84.375 Z M 82.03125 84.375 "/>
<path style=" stroke:none;fill-rule:nonzero;fill:rgb(30.196078%,36.470588%,47.843137%);fill-opacity:1;" d="M 91.402344 84.371094 L 96.089844 84.371094 L 96.089844 91.402344 L 91.402344 91.402344 Z M 91.402344 84.371094 "/>
<path style=" stroke:none;fill-rule:nonzero;fill:rgb(30.196078%,36.470588%,47.843137%);fill-opacity:1;" d="M 98.433594 84.371094 L 103.121094 84.371094 L 103.121094 91.402344 L 98.433594 91.402344 Z M 98.433594 84.371094 "/>
<path style=" stroke:none;fill-rule:nonzero;fill:rgb(30.196078%,36.470588%,47.843137%);fill-opacity:1;" d="M 105.464844 84.371094 L 110.152344 84.371094 L 110.152344 91.402344 L 105.464844 91.402344 Z M 105.464844 84.371094 "/>
<path style=" stroke:none;fill-rule:nonzero;fill:rgb(94.901961%,76.470588%,31.764706%);fill-opacity:1;" d="M 121.875 89.0625 L 131.25 89.0625 L 131.25 96.09375 L 121.875 96.09375 Z M 121.875 89.0625 "/>
<path style=" stroke:none;fill-rule:nonzero;fill:rgb(14.117647%,19.607843%,25.882353%);fill-opacity:1;" d="M 121.875 103.125 L 131.25 103.125 L 131.25 110.15625 L 121.875 110.15625 Z M 121.875 103.125 "/>
</g>
</svg>
