<?xml version="1.0" encoding="UTF-8"?>
<svg xmlns="http://www.w3.org/2000/svg" xmlns:xlink="http://www.w3.org/1999/xlink" width="150pt" height="150pt" viewBox="0 0 150 150" version="1.1">
<g id="surface1">
<path style=" stroke:none;fill-rule:nonzero;fill:rgb(60.784314%,83.529412%,86.666667%);fill-opacity:1;" d="M 98.4375 135.9375 L 51.5625 135.9375 C 50.941406 135.9375 50.34375 135.691406 49.90625 135.25 L 14.75 100.09375 C 14.308594 99.65625 14.0625 99.058594 14.0625 98.4375 L 14.0625 51.5625 C 14.0625 50.941406 14.308594 50.34375 14.75 49.90625 L 49.90625 14.75 C 50.34375 14.308594 50.941406 14.0625 51.5625 14.0625 L 98.4375 14.0625 C 99.058594 14.0625 99.65625 14.308594 100.09375 14.75 L 135.25 49.90625 C 135.691406 50.34375 135.9375 50.941406 135.9375 51.5625 L 135.9375 98.4375 C 135.9375 99.058594 135.691406 99.65625 135.25 100.09375 L 100.09375 135.25 C 99.65625 135.691406 99.058594 135.9375 98.4375 135.9375 Z M 52.53125 131.25 L 97.46875 131.25 L 131.25 97.46875 L 131.25 52.53125 L 97.46875 18.75 L 52.53125 18.75 L 18.75 52.53125 L 18.75 97.46875 Z M 52.53125 131.25 "/>
<path style=" stroke:none;fill-rule:nonzero;fill:rgb(60.784314%,83.529412%,86.666667%);fill-opacity:1;" d="M 55.011719 31.339844 L 51.5625 22.835938 L 55.914062 21.09375 L 59.363281 29.597656 Z M 55.011719 31.339844 "/>
<path style=" stroke:none;fill-rule:nonzero;fill:rgb(60.784314%,83.529412%,86.666667%);fill-opacity:1;" d="M 43.660156 64.988281 L 21.84375 56.355469 L 23.585938 52.003906 L 45.402344 60.636719 Z M 43.660156 64.988281 "/>
<path style=" stroke:none;fill-rule:nonzero;fill:rgb(60.784314%,83.529412%,86.666667%);fill-opacity:1;" d="M 22.542969 98.542969 L 20.800781 94.1875 L 43.660156 85.011719 L 45.402344 89.363281 Z M 22.542969 98.542969 "/>
<path style=" stroke:none;fill-rule:nonzero;fill:rgb(60.784314%,83.529412%,86.666667%);fill-opacity:1;" d="M 56.0625 128.449219 L 51.710938 126.710938 L 55.011719 118.660156 L 59.363281 120.402344 Z M 56.0625 128.449219 "/>
<path style=" stroke:none;fill-rule:nonzero;fill:rgb(60.784314%,83.529412%,86.666667%);fill-opacity:1;" d="M 127.3125 98.394531 L 115.144531 93.582031 L 116.886719 89.230469 L 129.054688 94.042969 Z M 127.3125 98.394531 "/>
<path style=" stroke:none;fill-rule:nonzero;fill:rgb(60.784314%,83.529412%,86.666667%);fill-opacity:1;" d="M 106.339844 64.988281 L 104.597656 60.636719 L 127.441406 51.417969 L 129.183594 55.769531 Z M 106.339844 64.988281 "/>
<path style=" stroke:none;fill-rule:nonzero;fill:rgb(60.784314%,83.529412%,86.666667%);fill-opacity:1;" d="M 94.050781 33.683594 L 89.699219 31.941406 L 93.644531 22.136719 L 98 23.875 Z M 94.050781 33.683594 "/>
<path style=" stroke:none;fill-rule:nonzero;fill:rgb(83.921569%,32.156863%,27.45098%);fill-opacity:1;" d="M 60.9375 16.40625 C 60.9375 21.582031 56.738281 25.78125 51.5625 25.78125 C 46.386719 25.78125 42.1875 21.582031 42.1875 16.40625 C 42.1875 11.230469 46.386719 7.03125 51.5625 7.03125 C 56.738281 7.03125 60.9375 11.230469 60.9375 16.40625 Z M 60.9375 16.40625 "/>
<path style=" stroke:none;fill-rule:nonzero;fill:rgb(83.921569%,32.156863%,27.45098%);fill-opacity:1;" d="M 107.8125 16.40625 C 107.8125 21.582031 103.613281 25.78125 98.4375 25.78125 C 93.261719 25.78125 89.0625 21.582031 89.0625 16.40625 C 89.0625 11.230469 93.261719 7.03125 98.4375 7.03125 C 103.613281 7.03125 107.8125 11.230469 107.8125 16.40625 Z M 107.8125 16.40625 "/>
<path style=" stroke:none;fill-rule:nonzero;fill:rgb(83.921569%,32.156863%,27.45098%);fill-opacity:1;" d="M 60.9375 133.59375 C 60.9375 138.769531 56.738281 142.96875 51.5625 142.96875 C 46.386719 142.96875 42.1875 138.769531 42.1875 133.59375 C 42.1875 128.417969 46.386719 124.21875 51.5625 124.21875 C 56.738281 124.21875 60.9375 128.417969 60.9375 133.59375 Z M 60.9375 133.59375 "/>
<path style=" stroke:none;fill-rule:nonzero;fill:rgb(83.921569%,32.156863%,27.45098%);fill-opacity:1;" d="M 107.8125 133.59375 C 107.8125 138.769531 103.613281 142.96875 98.4375 142.96875 C 93.261719 142.96875 89.0625 138.769531 89.0625 133.59375 C 89.0625 128.417969 93.261719 124.21875 98.4375 124.21875 C 103.613281 124.21875 107.8125 128.417969 107.8125 133.59375 Z M 107.8125 133.59375 "/>
<path style=" stroke:none;fill-rule:nonzero;fill:rgb(83.921569%,32.156863%,27.45098%);fill-opacity:1;" d="M 25.78125 51.5625 C 25.78125 56.738281 21.582031 60.9375 16.40625 60.9375 C 11.230469 60.9375 7.03125 56.738281 7.03125 51.5625 C 7.03125 46.386719 11.230469 42.1875 16.40625 42.1875 C 21.582031 42.1875 25.78125 46.386719 25.78125 51.5625 Z M 25.78125 51.5625 "/>
<path style=" stroke:none;fill-rule:nonzero;fill:rgb(83.921569%,32.156863%,27.45098%);fill-opacity:1;" d="M 25.78125 98.4375 C 25.78125 103.613281 21.582031 107.8125 16.40625 107.8125 C 11.230469 107.8125 7.03125 103.613281 7.03125 98.4375 C 7.03125 93.261719 11.230469 89.0625 16.40625 89.0625 C 21.582031 89.0625 25.78125 93.261719 25.78125 98.4375 Z M 25.78125 98.4375 "/>
<path style=" stroke:none;fill-rule:nonzero;fill:rgb(83.921569%,32.156863%,27.45098%);fill-opacity:1;" d="M 142.96875 51.5625 C 142.96875 56.738281 138.769531 60.9375 133.59375 60.9375 C 128.417969 60.9375 124.21875 56.738281 124.21875 51.5625 C 124.21875 46.386719 128.417969 42.1875 133.59375 42.1875 C 138.769531 42.1875 142.96875 46.386719 142.96875 51.5625 Z M 142.96875 51.5625 "/>
<path style=" stroke:none;fill-rule:nonzero;fill:rgb(83.921569%,32.156863%,27.45098%);fill-opacity:1;" d="M 142.96875 98.4375 C 142.96875 103.613281 138.769531 107.8125 133.59375 107.8125 C 128.417969 107.8125 124.21875 103.613281 124.21875 98.4375 C 124.21875 93.261719 128.417969 89.0625 133.59375 89.0625 C 138.769531 89.0625 142.96875 93.261719 142.96875 98.4375 Z M 142.96875 98.4375 "/>
<path style=" stroke:none;fill-rule:nonzero;fill:rgb(20.392157%,55.686275%,84.705882%);fill-opacity:1;" d="M 58.59375 37.5 L 91.40625 37.5 C 95.289062 37.5 98.4375 40.648438 98.4375 44.53125 L 98.4375 107.8125 C 98.4375 111.695312 95.289062 114.84375 91.40625 114.84375 L 58.59375 114.84375 C 54.710938 114.84375 51.5625 111.695312 51.5625 107.8125 L 51.5625 44.53125 C 51.5625 40.648438 54.710938 37.5 58.59375 37.5 Z M 58.59375 37.5 "/>
<path style=" stroke:none;fill-rule:nonzero;fill:rgb(16.862745%,47.058824%,71.764706%);fill-opacity:1;" d="M 67.96875 42.1875 L 82.03125 42.1875 L 84.375 37.5 L 65.625 37.5 Z M 67.96875 42.1875 "/>
<path style=" stroke:none;fill-rule:nonzero;fill:rgb(60.784314%,83.529412%,86.666667%);fill-opacity:1;" d="M 80.375 74.3125 C 77.402344 71.351562 72.597656 71.351562 69.625 74.3125 L 66.3125 71 C 71.113281 66.207031 78.886719 66.207031 83.6875 71 Z M 80.375 74.3125 "/>
<path style=" stroke:none;fill-rule:nonzero;fill:rgb(60.784314%,83.529412%,86.666667%);fill-opacity:1;" d="M 87.40625 68.417969 C 80.554688 61.570312 69.445312 61.570312 62.59375 68.417969 L 59.28125 65.105469 C 67.96875 56.4375 82.03125 56.4375 90.71875 65.105469 Z M 87.40625 68.417969 "/>
<path style=" stroke:none;fill-rule:nonzero;fill:rgb(16.862745%,47.058824%,71.764706%);fill-opacity:1;" d="M 70.3125 103.125 L 79.6875 103.125 L 79.6875 107.8125 L 70.3125 107.8125 Z M 70.3125 103.125 "/>
<path style=" stroke:none;fill-rule:nonzero;fill:rgb(16.862745%,47.058824%,71.764706%);fill-opacity:1;" d="M 72.65625 82.03125 L 77.34375 82.03125 L 77.34375 86.71875 L 72.65625 86.71875 Z M 72.65625 82.03125 "/>
<path style=" stroke:none;fill-rule:nonzero;fill:rgb(16.862745%,47.058824%,71.764706%);fill-opacity:1;" d="M 63.28125 82.03125 L 67.96875 82.03125 L 67.96875 86.71875 L 63.28125 86.71875 Z M 63.28125 82.03125 "/>
<path style=" stroke:none;fill-rule:nonzero;fill:rgb(99.215686%,78.431373%,63.529412%);fill-opacity:1;" d="M 106.722656 73.910156 L 98.4375 65.625 L 98.4375 89.0625 L 90.519531 81.144531 C 89.585938 80.210938 88.320312 79.6875 87.003906 79.6875 C 84.257812 79.6875 82.03125 81.914062 82.03125 84.660156 C 82.03125 85.976562 82.554688 87.242188 83.488281 88.175781 L 91.40625 96.09375 C 88.507812 100.441406 88.160156 106.007812 90.5 110.683594 L 91.40625 112.5 L 91.40625 114.84375 L 110.15625 114.84375 L 110.15625 82.199219 C 110.15625 79.089844 108.921875 76.109375 106.722656 73.910156 Z M 106.722656 73.910156 "/>
<path style=" stroke:none;fill-rule:nonzero;fill:rgb(99.215686%,71.372549%,51.372549%);fill-opacity:1;" d="M 98.417969 89.0625 C 99.332031 88.148438 100.816406 88.148438 101.730469 89.0625 L 103.105469 90.4375 C 104.019531 91.351562 104.019531 92.835938 103.105469 93.75 C 102.1875 94.664062 100.707031 94.664062 99.789062 93.75 L 98.417969 92.378906 C 97.503906 91.460938 97.503906 89.980469 98.417969 89.0625 Z M 98.417969 89.0625 "/>
</g>
</svg>
