<?xml version="1.0" encoding="UTF-8"?>
<svg xmlns="http://www.w3.org/2000/svg" xmlns:xlink="http://www.w3.org/1999/xlink" width="30pt" height="30pt" viewBox="0 0 30 30" version="1.1">
<g id="surface1">
<path style=" stroke:none;fill-rule:nonzero;fill:rgb(50.196078%,50.196078%,50.196078%);fill-opacity:1;" d="M 20.152344 7.417969 C 19.90625 7.417969 19.710938 7.222656 19.710938 6.980469 L 19.710938 3.726562 C 19.710938 2.953125 19.082031 2.328125 18.3125 2.328125 L 11.804688 2.328125 C 11.03125 2.328125 10.40625 2.953125 10.40625 3.726562 L 10.40625 6.980469 C 10.40625 7.222656 10.207031 7.417969 9.964844 7.417969 C 9.722656 7.417969 9.527344 7.222656 9.527344 6.980469 L 9.527344 3.726562 C 9.527344 2.46875 10.546875 1.449219 11.804688 1.449219 L 18.3125 1.449219 C 19.570312 1.449219 20.589844 2.46875 20.589844 3.726562 L 20.589844 6.980469 C 20.589844 7.222656 20.394531 7.417969 20.152344 7.417969 Z M 20.152344 7.417969 "/>
<path style=" stroke:none;fill-rule:nonzero;fill:rgb(65.098039%,88.627451%,89.019608%);fill-opacity:1;" d="M 29.992188 26.765625 L 29.808594 25.007812 L 28.078125 8.277344 C 28 7.546875 27.382812 6.988281 26.648438 6.988281 L 3.351562 6.988281 C 2.617188 6.988281 2 7.546875 1.921875 8.277344 L 0.191406 25.007812 L 0.0078125 26.765625 C -0.0898438 27.722656 0.660156 28.550781 1.617188 28.550781 L 28.382812 28.550781 C 29.339844 28.550781 30.089844 27.722656 29.992188 26.765625 Z M 29.992188 26.765625 "/>
<path style=" stroke:none;fill-rule:nonzero;fill:rgb(48.627451%,79.607843%,80%);fill-opacity:1;" d="M 29.992188 26.765625 L 29.808594 25.007812 L 28.078125 8.277344 C 28 7.546875 27.382812 6.988281 26.648438 6.988281 L 24.957031 6.988281 C 24.964844 7.277344 24.96875 7.5625 24.96875 7.851562 C 24.96875 15.65625 22.3125 22.84375 17.851562 28.550781 L 28.382812 28.550781 C 29.339844 28.550781 30.089844 27.722656 29.992188 26.765625 Z M 29.992188 26.765625 "/>
<path style=" stroke:none;fill-rule:nonzero;fill:rgb(95.686275%,94.509804%,93.333333%);fill-opacity:1;" d="M 7.964844 22.785156 L 7.117188 26.136719 L 10.464844 25.285156 L 9.976562 23.230469 Z M 7.964844 22.785156 "/>
<path style=" stroke:none;fill-rule:nonzero;fill:rgb(38.039216%,38.039216%,38.039216%);fill-opacity:1;" d="M 29.808594 25.007812 L 29.992188 26.765625 C 30.089844 27.722656 29.339844 28.550781 28.382812 28.550781 L 26.613281 28.550781 C 26.613281 26.707031 28.015625 25.191406 29.808594 25.007812 Z M 29.808594 25.007812 "/>
<path style=" stroke:none;fill-rule:nonzero;fill:rgb(50.196078%,50.196078%,50.196078%);fill-opacity:1;" d="M 3.386719 28.550781 L 1.617188 28.550781 C 0.660156 28.550781 -0.0898438 27.722656 0.0078125 26.765625 L 0.191406 25.007812 C 1.984375 25.191406 3.386719 26.707031 3.386719 28.550781 Z M 3.386719 28.550781 "/>
<path style=" stroke:none;fill-rule:nonzero;fill:rgb(95.686275%,94.509804%,93.333333%);fill-opacity:1;" d="M 22.367188 10.886719 C 22.710938 11.230469 22.882812 11.683594 22.882812 12.136719 C 22.882812 12.585938 22.710938 13.039062 22.367188 13.386719 L 21.816406 13.933594 L 20.191406 13.085938 L 19.316406 11.4375 L 19.867188 10.886719 C 20.554688 10.195312 21.675781 10.195312 22.367188 10.886719 Z M 22.367188 10.886719 "/>
<path style=" stroke:none;fill-rule:nonzero;fill:rgb(50.196078%,50.196078%,50.196078%);fill-opacity:1;" d="M 21.816406 13.933594 L 10.464844 25.285156 L 7.964844 22.785156 L 19.316406 11.4375 Z M 21.816406 13.933594 "/>
</g>
</svg>
