<?xml version="1.0" encoding="UTF-8"?>
<svg xmlns="http://www.w3.org/2000/svg" xmlns:xlink="http://www.w3.org/1999/xlink" width="150pt" height="150pt" viewBox="0 0 150 150" version="1.1">
<g id="surface1">
<path style=" stroke:none;fill-rule:nonzero;fill:rgb(40%,70.196078%,100%);fill-opacity:1;" d="M 61.816406 0 C 60.308594 -0.00390625 58.890625 0.269531 57.421875 0.386719 C 33.125 2.34375 14.488281 20.285156 10.160156 41.945312 C 8.492188 50.285156 8.742188 58.527344 10.898438 66.484375 L 0 84.722656 L 17.871094 97.457031 L 17.871094 123.046875 L 35.449219 123.046875 L 35.449219 150 L 96.972656 150 L 96.972656 131.480469 C 96.972656 113.476562 101.363281 94.410156 110.390625 73.191406 C 113.152344 66.707031 114.550781 59.824219 114.550781 52.734375 C 114.550781 23.816406 91.230469 0.0546875 61.816406 0 Z M 61.816406 0 "/>
<path style=" stroke:none;fill-rule:nonzero;fill:rgb(30.196078%,53.333333%,100%);fill-opacity:1;" d="M 96.972656 131.480469 C 96.972656 113.476562 101.363281 94.410156 110.390625 73.191406 C 113.152344 66.707031 114.550781 59.824219 114.550781 52.734375 C 114.550781 23.816406 91.230469 0.0546875 61.816406 0 C 60.308594 -0.00390625 58.890625 0.269531 57.421875 0.386719 L 57.421875 150 L 96.972656 150 Z M 96.972656 131.480469 "/>
<path style=" stroke:none;fill-rule:nonzero;fill:rgb(80%,90.196078%,100%);fill-opacity:1;" d="M 75 52.734375 L 128.027344 52.734375 L 128.027344 61.523438 L 75 61.523438 Z M 75 52.734375 "/>
<path style=" stroke:none;fill-rule:nonzero;fill:rgb(30.196078%,53.333333%,100%);fill-opacity:1;" d="M 136.816406 70.3125 C 129.546875 70.3125 123.632812 64.398438 123.632812 57.128906 C 123.632812 49.859375 129.546875 43.945312 136.816406 43.945312 C 144.085938 43.945312 150 49.859375 150 57.128906 C 150 64.398438 144.085938 70.3125 136.816406 70.3125 Z M 136.816406 70.3125 "/>
<path style=" stroke:none;fill-rule:nonzero;fill:rgb(80%,90.196078%,100%);fill-opacity:1;" d="M 127.496094 89.179688 L 117.417969 79.101562 L 57.421875 79.101562 L 57.421875 70.3125 L 121.058594 70.3125 L 133.710938 82.964844 Z M 127.496094 89.179688 "/>
<path style=" stroke:none;fill-rule:nonzero;fill:rgb(30.196078%,53.333333%,100%);fill-opacity:1;" d="M 136.816406 105.46875 C 129.546875 105.46875 123.632812 99.554688 123.632812 92.285156 C 123.632812 85.015625 129.546875 79.101562 136.816406 79.101562 C 144.085938 79.101562 150 85.015625 150 92.285156 C 150 99.554688 144.085938 105.46875 136.816406 105.46875 Z M 136.816406 105.46875 "/>
<path style=" stroke:none;fill-rule:nonzero;fill:rgb(80%,90.196078%,100%);fill-opacity:1;" d="M 121.058594 43.945312 L 57.421875 43.945312 L 57.421875 35.15625 L 117.417969 35.15625 L 127.496094 25.078125 L 133.710938 31.292969 Z M 121.058594 43.945312 "/>
<path style=" stroke:none;fill-rule:nonzero;fill:rgb(30.196078%,53.333333%,100%);fill-opacity:1;" d="M 136.816406 35.15625 C 129.546875 35.15625 123.632812 29.242188 123.632812 21.972656 C 123.632812 14.703125 129.546875 8.789062 136.816406 8.789062 C 144.085938 8.789062 150 14.703125 150 21.972656 C 150 29.242188 144.085938 35.15625 136.816406 35.15625 Z M 136.816406 35.15625 "/>
<path style=" stroke:none;fill-rule:nonzero;fill:rgb(90.196078%,96.862745%,100%);fill-opacity:1;" d="M 79.394531 57.128906 C 79.394531 69.265625 69.558594 79.101562 57.421875 79.101562 C 45.285156 79.101562 35.449219 69.265625 35.449219 57.128906 C 35.449219 44.992188 45.285156 35.15625 57.421875 35.15625 C 69.558594 35.15625 79.394531 44.992188 79.394531 57.128906 Z M 79.394531 57.128906 "/>
<path style=" stroke:none;fill-rule:nonzero;fill:rgb(80%,90.196078%,100%);fill-opacity:1;" d="M 79.394531 57.128906 C 79.394531 45.015625 69.535156 35.15625 57.421875 35.15625 L 57.421875 79.101562 C 69.535156 79.101562 79.394531 69.242188 79.394531 57.128906 Z M 79.394531 57.128906 "/>
<path style=" stroke:none;fill-rule:nonzero;fill:rgb(40%,70.196078%,100%);fill-opacity:1;" d="M 70.605469 57.128906 C 70.605469 64.410156 64.703125 70.3125 57.421875 70.3125 C 50.140625 70.3125 44.238281 64.410156 44.238281 57.128906 C 44.238281 49.847656 50.140625 43.945312 57.421875 43.945312 C 64.703125 43.945312 70.605469 49.847656 70.605469 57.128906 Z M 70.605469 57.128906 "/>
<path style=" stroke:none;fill-rule:nonzero;fill:rgb(30.196078%,53.333333%,100%);fill-opacity:1;" d="M 70.605469 57.128906 C 70.605469 49.859375 64.691406 43.945312 57.421875 43.945312 L 57.421875 70.3125 C 64.691406 70.3125 70.605469 64.398438 70.605469 57.128906 Z M 70.605469 57.128906 "/>
<path style=" stroke:none;fill-rule:nonzero;fill:rgb(90.196078%,96.862745%,100%);fill-opacity:1;" d="M 57.421875 52.734375 L 53.027344 52.734375 L 53.027344 61.523438 L 61.816406 61.523438 L 61.816406 52.734375 Z M 57.421875 52.734375 "/>
<path style=" stroke:none;fill-rule:nonzero;fill:rgb(80%,90.196078%,100%);fill-opacity:1;" d="M 57.421875 52.734375 L 61.816406 52.734375 L 61.816406 61.523438 L 57.421875 61.523438 Z M 57.421875 52.734375 "/>
</g>
</svg>
