<?xml version="1.0" encoding="UTF-8"?>
<svg xmlns="http://www.w3.org/2000/svg" xmlns:xlink="http://www.w3.org/1999/xlink" width="150pt" height="150pt" viewBox="0 0 150 150" version="1.1">
<g id="surface1">
<path style=" stroke:none;fill-rule:nonzero;fill:rgb(90.196078%,90.588235%,90.980392%);fill-opacity:1;" d="M 127.472656 49.804688 C 127.347656 49.417969 127.03125 49.121094 126.632812 49.023438 C 126.238281 48.929688 125.820312 49.046875 125.53125 49.335938 L 119.101562 55.765625 L 119.101562 21.136719 C 119.097656 15.9375 114.886719 11.726562 109.6875 11.71875 L 54.375 11.71875 C 49.175781 11.722656 44.964844 15.9375 44.957031 21.136719 L 44.957031 42.328125 C 44.277344 42.332031 43.625 42.605469 43.144531 43.085938 L 39.925781 46.304688 C 39.441406 46.789062 39.164062 47.449219 39.164062 48.136719 C 39.164062 48.824219 39.441406 49.484375 39.925781 49.972656 L 40.5 50.546875 L 40.425781 50.617188 C 39.386719 51.664062 38.84375 53.101562 38.933594 54.570312 L 34.542969 58.960938 C 33.097656 58.214844 31.335938 58.484375 30.183594 59.632812 L 27.558594 62.257812 C 26.09375 63.726562 26.09375 66.101562 27.558594 67.570312 L 36.933594 76.9375 C 38.398438 78.402344 40.777344 78.402344 42.242188 76.9375 L 44.871094 74.3125 C 44.90625 74.277344 44.929688 74.234375 44.964844 74.195312 L 44.964844 133.550781 C 44.96875 138.746094 49.175781 142.957031 54.367188 142.96875 L 109.6875 142.96875 C 114.886719 142.964844 119.097656 138.75 119.101562 133.550781 L 119.101562 68.875 C 126.316406 65.550781 129.90625 57.363281 127.472656 49.804688 Z M 127.472656 49.804688 "/>
<path style=" stroke:none;fill-rule:nonzero;fill:rgb(42.745098%,78.823529%,96.862745%);fill-opacity:1;" d="M 49.679688 8.203125 L 105 8.203125 C 109.550781 8.203125 113.242188 11.894531 113.242188 16.445312 L 113.242188 128.867188 C 113.242188 133.417969 109.550781 137.109375 105 137.109375 L 49.679688 137.109375 C 45.128906 137.109375 41.4375 133.417969 41.4375 128.867188 L 41.4375 16.445312 C 41.4375 11.894531 45.128906 8.203125 49.679688 8.203125 Z M 49.679688 8.203125 "/>
<path style=" stroke:none;fill-rule:nonzero;fill:rgb(83.137255%,98.431373%,100%);fill-opacity:1;" d="M 41.4375 20.425781 L 113.242188 20.425781 L 113.242188 119.632812 L 41.4375 119.632812 Z M 41.4375 20.425781 "/>
<path style=" stroke:none;fill-rule:nonzero;fill:rgb(100%,100%,100%);fill-opacity:1;" d="M 41.4375 20.425781 L 113.242188 20.425781 L 113.242188 23.941406 L 41.4375 23.941406 Z M 41.4375 20.425781 "/>
<path style=" stroke:none;fill-rule:nonzero;fill:rgb(0%,53.72549%,93.72549%);fill-opacity:1;" d="M 67.332031 13.109375 L 87.34375 13.109375 C 88.007812 13.109375 88.546875 13.648438 88.546875 14.3125 L 88.546875 14.566406 C 88.546875 15.230469 88.007812 15.765625 87.34375 15.765625 L 67.332031 15.765625 C 66.667969 15.769531 66.132812 15.230469 66.132812 14.566406 L 66.132812 14.3125 C 66.132812 13.648438 66.667969 13.109375 67.332031 13.109375 Z M 67.332031 13.109375 "/>
<path style=" stroke:none;fill-rule:nonzero;fill:rgb(0%,53.72549%,93.72549%);fill-opacity:1;" d="M 93.867188 12.980469 C 93.0625 12.976562 92.40625 13.632812 92.40625 14.4375 C 92.40625 15.246094 93.058594 15.898438 93.867188 15.898438 C 94.671875 15.898438 95.324219 15.246094 95.328125 14.4375 C 95.328125 13.632812 94.671875 12.976562 93.867188 12.976562 Z M 93.867188 12.980469 "/>
<path style=" stroke:none;fill-rule:nonzero;fill:rgb(0%,53.72549%,93.72549%);fill-opacity:1;" d="M 70.570312 124.398438 L 84.105469 124.398438 C 85.71875 124.398438 87.027344 125.707031 87.027344 127.320312 L 87.027344 127.9375 C 87.027344 129.546875 85.71875 130.855469 84.105469 130.855469 L 70.570312 130.855469 C 68.957031 130.855469 67.652344 129.546875 67.652344 127.9375 L 67.652344 127.320312 C 67.652344 125.707031 68.957031 124.398438 70.570312 124.398438 Z M 70.570312 124.398438 "/>
<path style=" stroke:none;fill-rule:nonzero;fill:rgb(0%,53.72549%,93.72549%);fill-opacity:1;" d="M 118.125 60.195312 C 121.976562 56.339844 123.347656 50.652344 121.671875 45.46875 L 112.210938 54.929688 L 102.835938 45.554688 L 112.296875 36.09375 C 106.902344 34.351562 100.988281 35.910156 97.152344 40.082031 C 93.3125 44.253906 92.257812 50.277344 94.441406 55.507812 L 51.957031 97.992188 C 49.796875 100.152344 49.796875 103.652344 51.957031 105.8125 C 54.117188 107.972656 57.621094 107.972656 59.78125 105.8125 L 102.261719 63.332031 C 107.699219 65.59375 113.960938 64.355469 118.125 60.195312 Z M 118.125 60.195312 "/>
<path style=" stroke:none;fill-rule:nonzero;fill:rgb(0%,53.72549%,93.72549%);fill-opacity:1;" d="M 44.210938 59.484375 L 39.65625 57.855469 C 38.539062 57.453125 37.660156 56.574219 37.257812 55.457031 L 35.625 50.902344 C 35.558594 50.710938 35.503906 50.511719 35.46875 50.316406 L 29.988281 55.792969 L 39.320312 65.125 L 44.804688 59.648438 C 44.601562 59.609375 44.40625 59.554688 44.210938 59.484375 Z M 44.210938 59.484375 "/>
<path style=" stroke:none;fill-rule:nonzero;fill:rgb(0%,53.72549%,93.72549%);fill-opacity:1;" d="M 80.003906 39.792969 L 68.050781 34.921875 C 59.761719 31.550781 50.269531 33.359375 43.800781 39.542969 C 44.878906 38.597656 46.382812 38.3125 47.734375 38.792969 L 52.289062 40.429688 C 53.40625 40.828125 54.285156 41.710938 54.6875 42.828125 L 56.316406 47.382812 C 56.398438 47.613281 56.457031 47.851562 56.492188 48.09375 C 61.304688 43.621094 67.898438 41.585938 74.398438 42.574219 L 79.042969 43.277344 C 79.953125 43.414062 80.824219 42.847656 81.070312 41.960938 C 81.316406 41.070312 80.855469 40.140625 80.003906 39.789062 Z M 80.003906 39.792969 "/>
<path style=" stroke:none;fill-rule:nonzero;fill:rgb(0%,53.72549%,93.72549%);fill-opacity:1;" d="M 43.417969 39.902344 L 43.414062 39.902344 L 41.394531 41.925781 Z M 43.417969 39.902344 "/>
<path style=" stroke:none;fill-rule:nonzero;fill:rgb(98.039216%,45.882353%,61.960784%);fill-opacity:1;" d="M 102.421875 96.664062 L 74.53125 68.78125 C 73.511719 67.761719 71.859375 67.761719 70.839844 68.78125 L 65.613281 74.011719 C 64.59375 75.027344 64.59375 76.683594 65.613281 77.703125 L 93.5 105.585938 C 95.960938 108.050781 99.957031 108.050781 102.421875 105.585938 C 104.886719 103.125 104.886719 99.128906 102.421875 96.664062 Z M 102.421875 96.664062 "/>
<path style=" stroke:none;fill-rule:nonzero;fill:rgb(100%,84.313725%,89.803922%);fill-opacity:1;" d="M 59.894531 57.832031 C 58.648438 56.585938 57.511719 55.234375 56.496094 53.792969 L 55.097656 51.808594 L 48.640625 58.265625 L 50.625 59.664062 C 52.066406 60.679688 53.417969 61.816406 54.667969 63.0625 L 65.613281 74.007812 L 70.84375 68.777344 Z M 59.894531 57.832031 "/>
<path style=" stroke:none;fill-rule:nonzero;fill:rgb(42.745098%,78.823529%,96.862745%);fill-opacity:1;" d="M 41.289062 39.226562 C 40.734375 38.671875 39.832031 38.671875 39.277344 39.226562 L 36.058594 42.445312 C 35.503906 43 35.503906 43.902344 36.058594 44.457031 L 37.464844 45.863281 L 42.695312 40.632812 Z M 41.289062 39.226562 "/>
<path style=" stroke:none;fill-rule:nonzero;fill:rgb(42.745098%,78.823529%,96.862745%);fill-opacity:1;" d="M 43.59375 39.726562 L 36.5625 46.757812 C 35.480469 47.84375 35.117188 49.453125 35.632812 50.898438 L 37.261719 55.453125 C 37.664062 56.570312 38.542969 57.449219 39.660156 57.851562 L 44.214844 59.480469 C 45.660156 59.996094 47.273438 59.632812 48.355469 58.550781 L 55.386719 51.519531 C 56.472656 50.433594 56.832031 48.824219 56.316406 47.378906 L 54.6875 42.824219 C 54.285156 41.707031 53.40625 40.828125 52.289062 40.429688 L 47.734375 38.800781 C 46.289062 38.28125 44.679688 38.644531 43.59375 39.726562 Z M 43.59375 39.726562 "/>
<path style=" stroke:none;fill-rule:nonzero;fill:rgb(42.745098%,78.823529%,96.862745%);fill-opacity:1;" d="M 23.679688 58.394531 L 26.304688 55.769531 C 27.316406 54.761719 28.949219 54.761719 29.960938 55.769531 L 39.328125 65.140625 C 40.335938 66.148438 40.335938 67.785156 39.328125 68.792969 L 36.703125 71.417969 C 35.695312 72.425781 34.058594 72.425781 33.050781 71.417969 L 23.679688 62.050781 C 22.671875 61.039062 22.671875 59.40625 23.679688 58.394531 Z M 23.679688 58.394531 "/>
<path style=" stroke:none;fill-rule:nonzero;fill:rgb(22.745098%,17.254902%,37.647059%);fill-opacity:1;" d="M 41.4375 105.953125 C 42.082031 105.953125 42.609375 105.429688 42.609375 104.78125 L 42.609375 95.3125 C 42.609375 94.664062 42.082031 94.140625 41.4375 94.140625 C 40.789062 94.140625 40.265625 94.664062 40.265625 95.3125 L 40.265625 104.78125 C 40.265625 105.429688 40.789062 105.953125 41.4375 105.953125 Z M 41.4375 105.953125 "/>
<path style=" stroke:none;fill-rule:nonzero;fill:rgb(22.745098%,17.254902%,37.647059%);fill-opacity:1;" d="M 122.785156 45.117188 C 122.660156 44.730469 122.34375 44.433594 121.945312 44.335938 C 121.550781 44.242188 121.132812 44.359375 120.84375 44.648438 L 114.414062 51.078125 L 114.414062 16.445312 C 114.410156 11.25 110.195312 7.039062 105 7.03125 L 49.6875 7.03125 C 44.488281 7.035156 40.277344 11.25 40.269531 16.445312 L 40.269531 37.640625 C 39.589844 37.644531 38.9375 37.917969 38.453125 38.398438 L 35.238281 41.617188 C 34.226562 42.628906 34.226562 44.269531 35.238281 45.285156 L 35.8125 45.859375 L 35.738281 45.929688 C 34.699219 46.976562 34.15625 48.414062 34.246094 49.882812 L 29.847656 54.285156 C 28.398438 53.570312 26.664062 53.835938 25.492188 54.945312 L 22.867188 57.570312 C 21.40625 59.039062 21.40625 61.414062 22.867188 62.882812 L 32.242188 72.257812 C 33.710938 73.722656 36.085938 73.722656 37.554688 72.257812 L 40.179688 69.632812 C 40.214844 69.59375 40.238281 69.554688 40.273438 69.515625 L 40.273438 89.648438 C 40.273438 90.296875 40.800781 90.820312 41.445312 90.820312 C 42.09375 90.820312 42.617188 90.296875 42.617188 89.648438 L 42.617188 63.496094 L 45.253906 60.859375 C 45.351562 60.867188 45.449219 60.882812 45.546875 60.882812 C 46.707031 60.878906 47.828125 60.480469 48.730469 59.757812 L 49.960938 60.621094 C 51.347656 61.597656 52.648438 62.691406 53.847656 63.890625 L 64.101562 74.152344 C 63.347656 75.605469 63.625 77.378906 64.789062 78.53125 L 67.277344 81.019531 L 51.128906 97.164062 C 48.574219 99.789062 48.605469 103.984375 51.195312 106.574219 C 53.789062 109.167969 57.980469 109.195312 60.609375 106.640625 L 76.757812 90.496094 L 92.667969 106.414062 C 95.609375 109.21875 100.25 109.164062 103.125 106.289062 C 105.996094 103.417969 106.050781 98.773438 103.242188 95.835938 L 87.332031 79.921875 L 102.550781 64.699219 C 105.609375 65.800781 108.9375 65.921875 112.070312 65.050781 L 112.070312 118.464844 L 42.609375 118.464844 L 42.609375 110.449219 C 42.609375 109.800781 42.082031 109.277344 41.4375 109.277344 C 40.789062 109.277344 40.265625 109.800781 40.265625 110.449219 L 40.265625 128.863281 C 40.269531 134.0625 44.480469 138.277344 49.679688 138.28125 L 105 138.28125 C 110.199219 138.277344 114.410156 134.0625 114.414062 128.863281 L 114.414062 64.1875 C 121.628906 60.863281 125.21875 52.675781 122.785156 45.117188 Z M 105 135.9375 L 49.6875 135.9375 C 45.78125 135.933594 42.617188 132.769531 42.613281 128.863281 L 42.613281 120.804688 L 112.070312 120.804688 L 112.070312 128.863281 C 112.066406 132.769531 108.902344 135.933594 105 135.9375 Z M 93.074219 55.21875 L 77.851562 70.441406 L 75.363281 67.953125 C 74.203125 66.800781 72.441406 66.527344 70.988281 67.269531 L 60.722656 57.007812 C 59.527344 55.804688 58.433594 54.503906 57.453125 53.117188 L 56.601562 51.902344 C 57.351562 50.953125 57.742188 49.773438 57.710938 48.5625 C 62.238281 44.605469 68.277344 42.835938 74.222656 43.730469 L 78.867188 44.433594 C 80.367188 44.660156 81.800781 43.730469 82.203125 42.269531 C 82.605469 40.808594 81.851562 39.273438 80.445312 38.703125 L 68.492188 33.835938 C 59.769531 30.277344 49.765625 32.1875 42.972656 38.71875 C 42.90625 38.78125 42.828125 38.835938 42.765625 38.898438 L 42.691406 38.972656 L 42.609375 38.890625 L 42.609375 21.597656 L 112.070312 21.597656 L 112.070312 34.820312 C 106.417969 33.230469 100.351562 34.933594 96.351562 39.230469 C 92.351562 43.523438 91.085938 49.695312 93.074219 55.21875 Z M 57.082031 46.039062 L 55.792969 42.429688 C 55.277344 40.980469 54.132812 39.839844 52.683594 39.324219 L 48.128906 37.695312 C 48.117188 37.695312 48.105469 37.6875 48.09375 37.683594 C 53.953125 34.019531 61.214844 33.398438 67.609375 36.011719 L 79.5625 40.878906 C 79.867188 41.003906 80.027344 41.332031 79.941406 41.648438 C 79.855469 41.964844 79.546875 42.167969 79.222656 42.121094 L 74.574219 41.417969 C 68.355469 40.476562 62.027344 42.152344 57.082031 46.039062 Z M 104.496094 45.558594 L 112.070312 37.988281 L 112.070312 53.132812 Z M 49.679688 9.375 L 105 9.375 C 108.902344 9.378906 112.066406 12.542969 112.070312 16.449219 L 112.070312 19.253906 L 42.609375 19.253906 L 42.609375 16.449219 C 42.613281 12.542969 45.777344 9.378906 49.679688 9.375 Z M 36.886719 43.273438 L 40.105469 40.054688 C 40.152344 40.007812 40.214844 39.980469 40.285156 39.980469 C 40.351562 39.980469 40.414062 40.007812 40.460938 40.054688 L 41.035156 40.628906 L 37.460938 44.199219 L 36.886719 43.628906 C 36.789062 43.53125 36.789062 43.371094 36.886719 43.273438 Z M 34.953125 52.484375 L 36.15625 55.851562 C 36.671875 57.300781 37.808594 58.441406 39.257812 58.957031 L 42.621094 60.160156 L 39.316406 63.46875 L 31.640625 55.792969 Z M 38.511719 67.96875 L 35.886719 70.59375 C 35.335938 71.140625 34.445312 71.140625 33.894531 70.59375 L 24.519531 61.21875 C 23.972656 60.667969 23.972656 59.777344 24.519531 59.226562 L 27.144531 56.601562 C 27.40625 56.335938 27.765625 56.1875 28.140625 56.1875 C 28.515625 56.1875 28.871094 56.335938 29.136719 56.601562 L 38.511719 65.976562 C 38.777344 66.242188 38.925781 66.597656 38.925781 66.972656 C 38.925781 67.347656 38.777344 67.703125 38.511719 67.96875 Z M 44.605469 58.378906 L 40.050781 56.75 C 39.261719 56.46875 38.640625 55.851562 38.359375 55.0625 L 36.734375 50.507812 C 36.371094 49.488281 36.628906 48.355469 37.386719 47.589844 L 44.417969 40.558594 C 45.183594 39.800781 46.316406 39.542969 47.335938 39.902344 L 51.890625 41.535156 C 52.679688 41.816406 53.300781 42.433594 53.582031 43.222656 L 55.210938 47.777344 C 55.570312 48.796875 55.316406 49.929688 54.554688 50.695312 L 47.523438 57.726562 C 46.757812 58.484375 45.625 58.738281 44.609375 58.378906 Z M 51.296875 58.703125 L 50.453125 58.109375 L 54.941406 53.621094 L 55.535156 54.46875 C 56.589844 55.964844 57.769531 57.367188 59.066406 58.664062 L 69.183594 68.78125 L 65.613281 72.351562 L 55.496094 62.234375 C 54.199219 60.941406 52.796875 59.761719 51.300781 58.710938 Z M 58.949219 104.984375 C 57.246094 106.6875 54.488281 106.6875 52.785156 104.984375 C 51.082031 103.28125 51.082031 100.523438 52.785156 98.820312 L 68.929688 82.675781 L 75.097656 88.839844 Z M 101.585938 104.757812 C 99.582031 106.761719 96.328125 106.761719 94.320312 104.757812 L 66.445312 76.875 C 65.882812 76.3125 65.882812 75.402344 66.445312 74.839844 L 71.671875 69.609375 C 72.234375 69.050781 73.140625 69.050781 73.703125 69.609375 L 101.589844 97.5 C 103.589844 99.507812 103.589844 102.75 101.589844 104.757812 Z M 102.710938 62.246094 C 102.273438 62.066406 101.769531 62.164062 101.433594 62.5 L 85.671875 78.261719 L 79.507812 72.097656 L 95.273438 56.335938 C 95.609375 56 95.710938 55.496094 95.527344 55.058594 C 93.652344 50.582031 94.355469 45.445312 97.363281 41.636719 C 100.371094 37.832031 105.207031 35.957031 109.996094 36.746094 L 102.011719 44.730469 C 101.554688 45.1875 101.554688 45.929688 102.011719 46.386719 L 111.386719 55.761719 C 111.851562 56.203125 112.578125 56.203125 113.042969 55.761719 L 121.027344 47.777344 C 121.8125 52.566406 119.9375 57.398438 116.128906 60.40625 C 112.324219 63.410156 107.1875 64.117188 102.714844 62.246094 Z M 102.710938 62.246094 "/>
</g>
</svg>
