<?xml version="1.0" encoding="UTF-8"?>
<svg xmlns="http://www.w3.org/2000/svg" xmlns:xlink="http://www.w3.org/1999/xlink" width="150pt" height="150pt" viewBox="0 0 150 150" version="1.1">
<g id="surface1">
<path style=" stroke:none;fill-rule:nonzero;fill:rgb(50.980392%,88.235294%,88.235294%);fill-opacity:1;" d="M 150 75 C 150 116.421875 116.421875 150 75 150 C 48.503906 150 25.21875 136.257812 11.875 115.515625 L 17.578125 115.515625 C 19.195312 115.515625 20.507812 114.203125 20.507812 112.585938 L 20.507812 29.296875 C 20.507812 27.785156 19.363281 26.542969 17.894531 26.382812 C 31.652344 10.242188 52.128906 0 75 0 C 116.421875 0 150 33.578125 150 75 Z M 150 75 "/>
<path style=" stroke:none;fill-rule:nonzero;fill:rgb(31.372549%,78.431373%,78.431373%);fill-opacity:1;" d="M 138.28125 67.382812 L 109.820312 67.382812 L 102.402344 74.800781 C 101.832031 75.371094 100.902344 75.371094 100.332031 74.800781 L 92.914062 67.382812 L 64.453125 67.382812 C 62.835938 67.382812 61.523438 66.070312 61.523438 64.453125 L 61.523438 23.4375 C 61.523438 21.820312 62.835938 20.507812 64.453125 20.507812 L 126.527344 20.507812 C 132.402344 26.0625 137.375 32.558594 141.210938 39.75 L 141.210938 64.453125 C 141.210938 66.070312 139.898438 67.382812 138.28125 67.382812 Z M 138.28125 67.382812 "/>
<path style=" stroke:none;fill-rule:nonzero;fill:rgb(31.372549%,78.431373%,78.431373%);fill-opacity:1;" d="M 148.324219 90.820312 C 141.058594 124.644531 110.992188 150 75 150 C 39.007812 150 8.941406 124.644531 1.675781 90.820312 Z M 148.324219 90.820312 "/>
<path style=" stroke:none;fill-rule:nonzero;fill:rgb(37.254902%,50.980392%,76.470588%);fill-opacity:1;" d="M 117.1875 29.296875 L 117.1875 112.585938 C 117.1875 114.203125 115.875 115.515625 114.257812 115.515625 L 11.875 115.515625 C 9.824219 112.324219 8.007812 108.964844 6.449219 105.46875 L 10.253906 105.46875 C 11.0625 105.46875 11.71875 104.8125 11.71875 104.003906 L 11.71875 39.550781 C 11.71875 38.742188 11.0625 38.085938 10.253906 38.085938 L 9.703125 38.085938 C 12.070312 33.914062 14.820312 29.992188 17.910156 26.367188 L 114.257812 26.367188 C 115.875 26.367188 117.1875 27.679688 117.1875 29.296875 Z M 117.1875 29.296875 "/>
<path style=" stroke:none;fill-rule:nonzero;fill:rgb(92.156863%,96.078431%,50.980392%);fill-opacity:1;" d="M 111.328125 39.550781 L 111.328125 104.003906 C 111.328125 104.8125 110.671875 105.46875 109.863281 105.46875 L 6.453125 105.46875 C 2.308594 96.15625 0 85.847656 0 75 C 0 61.578125 3.527344 48.984375 9.703125 38.085938 L 109.863281 38.085938 C 110.671875 38.085938 111.328125 38.742188 111.328125 39.550781 Z M 111.328125 39.550781 "/>
<path style=" stroke:none;fill-rule:nonzero;fill:rgb(100%,100%,56.862745%);fill-opacity:1;" d="M 109.863281 105.46875 L 12.3125 105.46875 C 8.167969 96.15625 5.859375 85.847656 5.859375 75 C 5.859375 61.578125 9.386719 48.984375 15.5625 38.085938 L 109.863281 38.085938 C 110.671875 38.085938 111.328125 38.742188 111.328125 39.550781 L 111.328125 104.003906 C 111.328125 104.8125 110.671875 105.46875 109.863281 105.46875 Z M 109.863281 105.46875 "/>
<path style=" stroke:none;fill-rule:nonzero;fill:rgb(31.372549%,43.137255%,62.745098%);fill-opacity:1;" d="M 125.976562 112.792969 L 125.976562 114.050781 C 125.976562 118.90625 122.042969 122.839844 117.1875 122.839844 L 17.238281 122.839844 C 14.277344 119.265625 11.640625 115.414062 9.375 111.328125 L 124.511719 111.328125 C 125.320312 111.328125 125.976562 111.984375 125.976562 112.792969 Z M 125.976562 112.792969 "/>
<path style=" stroke:none;fill-rule:nonzero;fill:rgb(25.490196%,35.294118%,52.941176%);fill-opacity:1;" d="M 125.945312 114.765625 C 125.578125 119.285156 121.800781 122.839844 117.1875 122.839844 L 17.238281 122.839844 C 15.679688 120.960938 14.210938 119.007812 12.839844 116.980469 L 120.117188 116.980469 C 122.355469 116.980469 124.394531 116.144531 125.945312 114.765625 Z M 46.875 35.15625 C 48.492188 35.15625 49.804688 33.84375 49.804688 32.226562 C 49.804688 30.609375 48.492188 29.296875 46.875 29.296875 C 45.257812 29.296875 43.945312 30.609375 43.945312 32.226562 C 43.945312 33.84375 45.257812 35.15625 46.875 35.15625 Z M 46.875 35.15625 "/>
<path style=" stroke:none;fill-rule:nonzero;fill:rgb(96.862745%,81.960784%,22.352941%);fill-opacity:1;" d="M 67.382812 58.957031 L 67.382812 61.886719 C 67.382812 62.695312 66.726562 63.351562 65.917969 63.351562 L 48.339844 63.351562 C 47.53125 63.351562 46.875 62.695312 46.875 61.886719 L 46.875 58.957031 C 46.875 58.148438 47.53125 57.492188 48.339844 57.492188 L 65.917969 57.492188 C 66.726562 57.492188 67.382812 58.148438 67.382812 58.957031 Z M 27.832031 79.101562 L 21.972656 79.101562 C 21.164062 79.101562 20.507812 79.757812 20.507812 80.566406 L 20.507812 83.496094 C 20.507812 84.304688 21.164062 84.960938 21.972656 84.960938 L 27.832031 84.960938 C 28.640625 84.960938 29.296875 84.304688 29.296875 83.496094 L 29.296875 80.566406 C 29.296875 79.757812 28.640625 79.101562 27.832031 79.101562 Z M 27.832031 79.101562 "/>
<path style=" stroke:none;fill-rule:nonzero;fill:rgb(100%,96.078431%,45.098039%);fill-opacity:1;" d="M 8.789062 51.269531 L 8.789062 48.339844 C 8.789062 47.53125 9.445312 46.875 10.253906 46.875 L 36.621094 46.875 C 37.429688 46.875 38.085938 47.53125 38.085938 48.339844 L 38.085938 51.269531 C 38.085938 52.078125 37.429688 52.734375 36.621094 52.734375 L 10.253906 52.734375 C 9.445312 52.734375 8.789062 52.078125 8.789062 51.269531 Z M 36.621094 90.820312 L 10.253906 90.820312 C 9.445312 90.820312 8.789062 91.476562 8.789062 92.285156 L 8.789062 95.214844 C 8.789062 96.023438 9.445312 96.679688 10.253906 96.679688 L 36.621094 96.679688 C 37.429688 96.679688 38.085938 96.023438 38.085938 95.214844 L 38.085938 92.285156 C 38.085938 91.476562 37.429688 90.820312 36.621094 90.820312 Z M 20.507812 58.957031 L 20.507812 61.886719 C 20.507812 62.695312 21.164062 63.351562 21.972656 63.351562 L 42.480469 63.351562 C 43.289062 63.351562 43.945312 62.695312 43.945312 61.886719 L 43.945312 58.957031 C 43.945312 58.148438 43.289062 57.492188 42.480469 57.492188 L 21.972656 57.492188 C 21.164062 57.492188 20.507812 58.148438 20.507812 58.957031 Z M 21.972656 68.484375 C 21.164062 68.484375 20.507812 69.140625 20.507812 69.949219 L 20.507812 72.878906 C 20.507812 73.6875 21.164062 74.34375 21.972656 74.34375 L 33.691406 74.34375 C 34.5 74.34375 35.15625 73.6875 35.15625 72.878906 L 35.15625 69.949219 C 35.15625 69.140625 34.5 68.484375 33.691406 68.484375 Z M 71.777344 68.484375 L 62.988281 68.484375 C 62.179688 68.484375 61.523438 69.140625 61.523438 69.949219 L 61.523438 72.878906 C 61.523438 73.6875 62.179688 74.34375 62.988281 74.34375 L 71.777344 74.34375 C 72.585938 74.34375 73.242188 73.6875 73.242188 72.878906 L 73.242188 69.949219 C 73.242188 69.140625 72.585938 68.484375 71.777344 68.484375 Z M 86.425781 68.484375 L 77.636719 68.484375 C 76.828125 68.484375 76.171875 69.140625 76.171875 69.949219 L 76.171875 72.878906 C 76.171875 73.6875 76.828125 74.34375 77.636719 74.34375 L 86.425781 74.34375 C 87.234375 74.34375 87.890625 73.6875 87.890625 72.878906 L 87.890625 69.949219 C 87.890625 69.140625 87.234375 68.484375 86.425781 68.484375 Z M 57.128906 68.484375 L 39.550781 68.484375 C 38.742188 68.484375 38.085938 69.140625 38.085938 69.949219 L 38.085938 72.878906 C 38.085938 73.6875 38.742188 74.34375 39.550781 74.34375 L 57.128906 74.34375 C 57.9375 74.34375 58.59375 73.6875 58.59375 72.878906 L 58.59375 69.949219 C 58.59375 69.140625 57.9375 68.484375 57.128906 68.484375 Z M 45.410156 79.101562 L 33.691406 79.101562 C 32.882812 79.101562 32.226562 79.757812 32.226562 80.566406 L 32.226562 83.496094 C 32.226562 84.304688 32.882812 84.960938 33.691406 84.960938 L 45.410156 84.960938 C 46.21875 84.960938 46.875 84.304688 46.875 83.496094 L 46.875 80.566406 C 46.875 79.757812 46.21875 79.101562 45.410156 79.101562 Z M 45.410156 79.101562 "/>
<path style=" stroke:none;fill-rule:nonzero;fill:rgb(100%,43.137255%,56.862745%);fill-opacity:1;" d="M 17.578125 80.566406 L 17.578125 83.496094 C 17.578125 84.304688 16.921875 84.960938 16.113281 84.960938 L 10.253906 84.960938 C 9.445312 84.960938 8.789062 84.304688 8.789062 83.496094 L 8.789062 80.566406 C 8.789062 79.757812 9.445312 79.101562 10.253906 79.101562 L 16.113281 79.101562 C 16.921875 79.101562 17.578125 79.757812 17.578125 80.566406 Z M 16.113281 68.484375 L 10.253906 68.484375 C 9.445312 68.484375 8.789062 69.140625 8.789062 69.949219 L 8.789062 72.878906 C 8.789062 73.6875 9.445312 74.34375 10.253906 74.34375 L 16.113281 74.34375 C 16.921875 74.34375 17.578125 73.6875 17.578125 72.878906 L 17.578125 69.949219 C 17.578125 69.140625 16.921875 68.484375 16.113281 68.484375 Z M 16.113281 57.492188 L 10.253906 57.492188 C 9.445312 57.492188 8.789062 58.148438 8.789062 58.957031 L 8.789062 61.886719 C 8.789062 62.695312 9.445312 63.351562 10.253906 63.351562 L 16.113281 63.351562 C 16.921875 63.351562 17.578125 62.695312 17.578125 61.886719 L 17.578125 58.957031 C 17.578125 58.148438 16.921875 57.492188 16.113281 57.492188 Z M 16.113281 57.492188 "/>
<path style=" stroke:none;fill-rule:nonzero;fill:rgb(100%,43.137255%,56.862745%);fill-opacity:1;" d="M 141.210938 14.648438 L 141.210938 55.664062 C 141.210938 57.28125 139.898438 58.59375 138.28125 58.59375 L 109.820312 58.59375 L 102.402344 66.011719 C 101.832031 66.582031 100.902344 66.582031 100.332031 66.011719 L 92.914062 58.59375 L 64.453125 58.59375 C 62.835938 58.59375 61.523438 57.28125 61.523438 55.664062 L 61.523438 14.648438 C 61.523438 13.03125 62.835938 11.71875 64.453125 11.71875 L 138.28125 11.71875 C 139.898438 11.71875 141.210938 13.03125 141.210938 14.648438 Z M 141.210938 14.648438 "/>
<path style=" stroke:none;fill-rule:nonzero;fill:rgb(100%,92.156863%,86.27451%);fill-opacity:1;" d="M 108.492188 26.351562 L 103.179688 37.753906 L 99.117188 46.457031 C 98.625 47.515625 97.367188 47.972656 96.3125 47.480469 L 94.78125 46.765625 C 93.722656 46.273438 93.265625 45.015625 93.757812 43.960938 L 97.816406 35.253906 L 103.132812 23.855469 C 103.625 22.796875 104.886719 22.339844 105.941406 22.832031 L 107.472656 23.546875 C 108.527344 24.039062 108.984375 25.296875 108.492188 26.351562 Z M 90.496094 25.394531 L 89.300781 24.199219 C 88.476562 23.375 87.136719 23.375 86.3125 24.199219 L 77.257812 33.257812 C 76.882812 33.628906 76.679688 34.109375 76.644531 34.601562 C 76.632812 34.785156 76.636719 35.472656 76.640625 35.617188 C 76.652344 36.136719 76.859375 36.65625 77.257812 37.054688 L 86.3125 46.113281 C 87.136719 46.9375 88.476562 46.9375 89.300781 46.113281 L 90.496094 44.917969 C 91.320312 44.09375 91.320312 42.753906 90.496094 41.929688 L 83.722656 35.15625 L 90.496094 28.382812 C 91.320312 27.558594 91.320312 26.21875 90.496094 25.394531 Z M 126.09375 34.695312 C 126.082031 34.175781 125.875 33.65625 125.476562 33.257812 L 116.421875 24.199219 C 115.597656 23.375 114.257812 23.375 113.433594 24.199219 L 112.238281 25.394531 C 111.414062 26.21875 111.414062 27.558594 112.238281 28.382812 L 119.011719 35.15625 L 112.238281 41.929688 C 111.414062 42.753906 111.414062 44.09375 112.238281 44.917969 L 113.433594 46.113281 C 114.257812 46.9375 115.597656 46.9375 116.421875 46.113281 L 125.476562 37.054688 C 125.851562 36.683594 126.054688 36.203125 126.089844 35.710938 C 126.101562 35.527344 126.097656 34.839844 126.09375 34.695312 Z M 126.09375 34.695312 "/>
</g>
</svg>
